<?xml version="1.0" encoding="utf-8"?>
<!-- Generator: Adobe Illustrator 23.0.4, SVG Export Plug-In . SVG Version: 6.00 Build 0)  -->
<svg version="1.1" id="Layer_1" xmlns="http://www.w3.org/2000/svg" xmlns:xlink="http://www.w3.org/1999/xlink" x="0px" y="0px"
	 viewBox="0 0 9637.8 4818.9" style="enable-background:new 0 0 9637.8 4818.9;" xml:space="preserve">
<style type="text/css">
	.st0{fill:#FFFFFF;}
	.st1{fill:#0A5158;}
	.st2{fill:none;stroke:#0E7776;stroke-miterlimit:10;}
	.st3{fill:#F5BCBC;}
</style>
<polygon class="st0" points="1923.73,2266 1562.43,2266 1562.43,1951.53 1221.34,1951.53 1221.34,1618.41 1562.43,1618.41 
	1562.43,1303.94 1923.73,1303.94 1923.73,1618.41 2264.81,1618.41 2264.81,1951.53 1923.73,1951.53 "/>
<polygon class="st1" points="1923.73,2266 1562.43,2266 1562.43,1951.53 1221.34,1951.53 1221.34,1618.41 1562.43,1618.41 
	1562.43,1303.94 1923.73,1303.94 1923.73,1618.41 2264.81,1618.41 2264.81,1951.53 1923.73,1951.53 "/>
<path class="st0" d="M1743.06,2499.93c-428.22,0-775.46-320.07-775.46-714.96c0-394.9,347.24-714.96,775.46-714.96
	c428.29,0,775.46,320.07,775.46,714.96C2518.52,2179.87,2171.35,2499.93,1743.06,2499.93 M1741.37,789.95
	c-597.08,0-1081.12,445.76-1081.12,995.64c0,236.36,89.4,453.47,238.76,624.23l73.84,76.12l770.2,793.82l769.71-796.48l70.96-73.46
	c149.36-170.75,238.76-387.86,238.76-624.23C2822.49,1235.71,2338.45,789.95,1741.37,789.95"/>
<path class="st1" d="M1743.06,2499.93c-428.22,0-775.46-320.07-775.46-714.96c0-394.9,347.24-714.96,775.46-714.96
	c428.29,0,775.46,320.07,775.46,714.96C2518.52,2179.87,2171.35,2499.93,1743.06,2499.93z M1741.37,789.95
	c-597.08,0-1081.12,445.76-1081.12,995.64c0,236.36,89.4,453.47,238.76,624.23l73.84,76.12l770.2,793.82l769.71-796.48l70.96-73.46
	c149.36-170.75,238.76-387.86,238.76-624.23C2822.49,1235.71,2338.45,789.95,1741.37,789.95z"/>
<path class="st1" d="M1743.25,3567.61c138.12,0,249.86,103.33,249.86,230.67c0,127.34-111.73,230.67-249.86,230.67
	c-138.47,0-250.2-103.33-250.2-230.67C1493.05,3670.94,1604.78,3567.61,1743.25,3567.61"/>
<path class="st2" d="M1743.25,3567.61c138.12,0,249.86,103.33,249.86,230.67c0,127.34-111.73,230.67-249.86,230.67
	c-138.47,0-250.2-103.33-250.2-230.67C1493.05,3670.94,1604.78,3567.61,1743.25,3567.61z"/>
<path class="st1" d="M3707.05,3086.85c0,56.92-23.33,105.86-69.98,146.8c-45.64,40.95-102.43,61.42-170.39,61.42
	c-53.75,0-99.39-8.49-136.92-25.47c-19.27-7.99-35.75-15.73-49.44-23.22c-13.69-7.49-27.13-15.23-40.31-23.22v-116.85
	c26.37,16.98,48.68,29.71,66.94,38.2c18.26,8.49,36.51,15.73,54.77,21.72c36.51,12.98,71.5,19.48,104.97,19.48
	c39.55,0,72.01-9.49,97.37-28.46c23.32-16.98,34.99-40.95,34.99-71.91c0-20.97-8.62-39.95-25.86-56.92
	c-20.28-18.98-66.94-41.45-139.96-67.41c-29.41-10.98-55.53-22.72-78.35-35.21c-22.82-12.48-42.35-26.71-58.58-42.69
	c-34.48-32.96-51.72-75.4-51.72-127.33c0-57.92,24.34-105.86,73.02-143.81c23.33-17.98,48.18-31.96,74.55-41.94
	c26.37-9.99,54.77-14.98,85.2-14.98c44.62,0,85.7,6.99,123.23,20.98c34.48,12.98,62.88,28.96,85.2,47.94v122.83
	c-26.37-19.97-47.67-34.7-63.9-44.19c-16.22-9.49-31.94-17.73-47.16-24.72c-31.44-12.98-61.87-19.48-91.28-19.48
	c-22.31,0-41.33,2.5-57.05,7.49c-15.72,4.99-29.16,11.99-40.32,20.98c-22.31,20.97-33.47,43.44-33.47,67.41
	c0,25.96,11.16,46.93,33.47,62.92c13.19,8.99,28.4,17.72,45.64,26.21c17.25,8.49,37.53,16.73,60.86,24.72
	c61.87,20.98,112.07,46.94,150.61,77.9C3685.75,2978.99,3707.05,3025.93,3707.05,3086.85 M4756.77,3624.64h-117.14l247.98-492.84
	l-298.19-563.25h121.71l234.29,447.9l222.11-447.9h117.14L4756.77,3624.64z"/>
<polygon class="st1" points="4542.24,3280.02 4384.07,3280.02 3967.21,2937.18 3967.21,3280.02 3856.13,3280.02 3856.13,2219.53 
	3967.21,2219.53 3967.21,2876.1 4329.29,2568.47 4482.93,2568.47 4087.35,2907.16 "/>
<path class="st1" d="M6263.74,3281.15v-402.96c0-70.91-14.2-123.83-42.6-158.79c-29.42-36.95-69.48-55.43-120.19-55.43
	c-38.54,0-73.02,15.48-103.45,46.44c-30.43,29.96-56.8,62.92-79.11,98.87v471.87h-111.06v-402.96c0-69.91-13.19-123.34-39.56-160.29
	c-27.38-35.95-66.43-53.93-117.14-53.93c-46.66,0-84.19,12.49-112.58,37.45c-28.4,24.97-54.27,55.93-77.59,92.88v486.85h-111.06
	c-1.02,0-1.52-162.78-1.52-488.35c7.1-48.93,26.88-90.38,59.33-124.33c49.69-66.91,133.88-104.36,252.54-112.35h18.25
	c20.28,0,40.57,3.24,60.85,9.74c20.28,6.49,40.06,15.23,59.33,26.22c32.46,21.97,61.36,57.42,86.72,106.36
	c9.13-13.98,20.03-27.96,32.71-41.95c12.68-13.98,26.11-27.96,40.31-41.94c42.6-38.95,95.85-58.42,159.74-58.42h18.26
	c71,0,129.31,28.46,174.95,85.39c42.6,56.93,63.9,128.33,63.9,214.22v425.43H6263.74z M6651.68,2918.63v26.97
	c3.04,64.91,27.89,120.34,74.54,166.28c25.36,23.97,53.25,42.45,83.67,55.43c30.43,12.98,64.91,19.48,103.45,19.48
	c51.72,0,98.38-11.49,139.96-34.46c22.32-11.98,42.6-24.47,60.85-37.45c18.26-12.98,40.06-30.96,65.42-53.93v133.33
	c-17.24,12.98-34.73,24.96-52.48,35.95c-17.75,10.99-37.28,20.97-58.58,29.96c-49.69,22.97-103.45,34.45-161.26,34.45
	c-107.51,0-196.26-35.45-266.24-106.36c-68.96-72.9-103.45-163.78-103.45-272.64c0-100.87,30.93-185.26,92.8-253.17
	c62.89-70.9,143.01-106.36,240.37-106.36c94.32,0,171.91,32.96,232.77,98.87c29.41,31.96,51.72,69.15,66.94,111.6
	c15.21,42.44,22.82,93.12,22.82,152.05H6651.68z M7059.4,2831.74c-5.08-23.97-12.17-46.44-21.3-67.41
	c-9.12-20.97-20.79-38.45-34.99-52.43c-15.21-14.98-33.47-26.71-54.77-35.2c-21.3-8.49-46.65-12.74-76.07-12.74
	c-66.94,0-120.19,24.47-159.74,73.41c-9.13,10.98-17.5,24.96-25.1,41.94c-7.61,16.98-13.94,33.96-19.02,50.93h390.99V2831.74z
	 M7975.24,3137.34c2.03,3-17.24,23.47-57.81,61.42c-10.14,9.99-24.34,20.97-42.6,32.95c-35.5,19.98-64.41,33.96-86.71,41.95
	c-8.12,3-24.35,8.49-48.69,16.48c-19.27,2.99-38.54,4.49-57.81,4.49c-103.45,0-190.17-35.45-260.15-106.36
	c-70.99-70.91-106.49-158.29-106.49-262.15c0-108.85,34.99-197.74,104.97-266.65c34.48-34.95,74.54-60.92,120.19-77.9
	c45.64-16.98,95.84-25.47,150.61-25.47c32.46,0,63.9,4.49,94.33,13.48c15.21,4.99,29.41,9.74,42.6,14.23
	c13.18,4.49,25.36,9.74,36.51,15.73v-379h111.06V3137.34z M7862.66,2720.89c-8.11-5.99-17.75-11.74-28.91-17.23
	c-11.16-5.49-23.83-11.74-38.03-18.73c-31.44-13.99-67.45-20.98-108.02-20.98c-76.07,0-137.43,24.47-184.08,73.41
	c-48.68,47.93-73.02,110.85-73.02,188.75c0,73.9,24.85,135.32,74.55,184.26c51.73,50.93,115.62,76.4,191.69,76.4
	c24.34,0,45.89-2,64.66-5.99c18.76-3.99,35.24-9.49,49.44-16.48c12.17-6.99,22.57-14.23,31.19-21.72
	c8.62-7.49,15.46-13.23,20.54-17.23V2720.89z M8154.76,2382.34v-161.79h111.06v160.29L8154.76,2382.34z M8154.76,2569.59h111.06
	v711.55h-111.06V2569.59z M8979.33,3254.19c-14.2,4.99-27.64,9.23-40.32,12.73s-27.64,7.74-44.88,12.74
	c-19.27,4.99-38.54,8.74-57.81,11.23c-19.27,2.49-39.05,3.75-59.33,3.75c-111.57,0-199.8-33.46-264.72-100.37
	c-63.89-66.91-95.84-156.29-95.84-268.15c0-101.86,31.44-188.25,94.32-259.16c65.92-73.9,152.13-110.85,258.63-110.85
	c37.52,0,70.49,3.5,98.89,10.49c15.21,3,30.43,6.74,45.64,11.23c15.22,4.5,32.96,10.24,53.25,17.23v122.84
	c-23.33-10.99-42.35-18.98-57.05-23.97c-14.71-4.99-29.16-9.99-43.36-14.98c-28.4-9.99-60.35-14.98-95.85-14.98
	c-72.01,0-129.31,23.97-171.91,71.91c-44.63,49.93-66.94,113.35-66.94,190.25c0,79.89,22.31,143.31,66.94,190.25
	c21.3,22.97,46.91,40.45,76.83,52.43c29.92,11.98,64.66,17.98,104.21,17.98c36.51,0,69.98-4.49,100.41-13.48
	c15.21-4.99,30.17-9.98,44.88-14.98c14.7-4.99,32.71-11.98,54.01-20.97V3254.19z"/>
<path class="st3" d="M3539.29,1867.64c2.92,0,5.47,1.21,7.66,3.61l21.07,23.06c-16.05,18.9-35.47,33.62-58.36,44.18
	c-22.89,10.56-50.61,15.83-83.07,15.83c-28.09,0-53.62-5-76.6-14.91c-22.98-9.91-42.59-23.8-58.82-41.68
	c-16.23-17.87-28.81-39.27-37.75-64.28c-8.94-25-13.4-52.51-13.4-82.52c0-30.01,4.65-57.52,13.95-82.53
	c9.31-25,22.43-46.5,39.3-64.46c16.87-17.97,37.03-31.96,60.56-41.86c23.52-9.92,49.51-14.82,77.97-14.82
	c27.91,0,52.52,4.54,73.86,13.62c21.34,9.08,40.13,21.4,56.36,36.96l-17.51,24.73c-1.09,1.85-2.46,3.34-4.2,4.54
	c-1.73,1.21-4.1,1.85-7.02,1.85c-3.28,0-7.29-1.85-12.04-5.46c-4.74-3.61-10.94-7.59-18.61-12.04c-7.66-4.45-17.23-8.52-28.72-12.13
	c-11.49-3.61-25.62-5.37-42.4-5.37c-20.24,0-38.76,3.52-55.53,10.65c-16.78,7.13-31.19,17.5-43.32,31.03
	c-12.13,13.52-21.62,30.01-28.36,49.46c-6.74,19.46-10.12,41.4-10.12,65.86c0,24.83,3.55,46.96,10.57,66.41
	c7.02,19.45,16.6,35.84,28.72,49.28c12.13,13.43,26.45,23.71,42.95,30.75c16.51,7.04,34.29,10.56,53.44,10.56
	c11.67,0,22.25-0.74,31.64-2.13c9.39-1.39,18.06-3.52,25.99-6.48c7.93-2.96,15.32-6.76,22.16-11.3c6.85-4.54,13.59-9.91,20.34-16.2
	C3533.09,1869.02,3536.19,1867.64,3539.29,1867.64 M3871.41,1905.98l-0.28,43.9h-241.56v-398.19h241.56v43.9h-188.49v132.27h152.65
	v42.24h-152.65v135.88H3871.41z M4263.17,1551.69v398.19h-26.54c-4.19,0-7.66-0.74-10.49-2.23c-2.82-1.47-5.65-3.97-8.39-7.5
	l-226.79-300.1c0.37,4.63,0.64,9.17,0.82,13.62c0.18,4.44,0.27,8.61,0.27,12.5v283.71h-46.51v-398.19h27.36
	c2.37,0,4.37,0.09,6.02,0.38c1.64,0.28,3.09,0.74,4.38,1.39c1.27,0.65,2.55,1.57,3.83,2.77c1.28,1.21,2.65,2.78,4.11,4.63
	l226.79,299.83c-0.36-4.82-0.64-9.54-0.92-14.08c-0.27-4.54-0.46-8.8-0.46-12.88v-282.04H4263.17z M4628.39,1596.99h-126.94v352.9
	h-52.8v-352.9h-127.21v-45.3h306.95V1596.99z M4794.99,1744.54c15.33,0,28.91-1.95,40.68-5.75c11.76-3.8,21.61-9.17,29.54-16.12
	c7.93-6.95,13.86-15.19,17.87-24.82c4.01-9.63,6.03-20.28,6.03-31.96c0-23.71-7.66-41.58-22.98-53.63
	c-15.32-12.04-38.3-18.06-68.94-18.06h-57.99v150.33H4794.99z M4976.1,1949.89h-47.06c-9.66,0-16.78-3.8-21.34-11.39l-101.77-142.28
	c-3.1-4.44-6.39-7.68-9.94-9.63c-3.56-1.95-9.12-2.87-16.6-2.87h-40.21v166.17h-52.8v-398.19h110.8c24.8,0,46.23,2.5,64.29,7.6
	c18.06,5.1,33.01,12.51,44.77,22.14c11.76,9.63,20.43,21.2,26.08,34.82c5.66,13.62,8.49,28.89,8.49,45.75
	c0,14.08-2.19,27.23-6.57,39.46c-4.38,12.23-10.67,23.16-18.97,32.88c-8.3,9.72-18.42,18.06-30.37,24.91
	c-11.94,6.86-25.54,12.05-40.68,15.56c6.75,3.89,12.59,9.54,17.51,16.95L4976.1,1949.89z M5178.27,1907.1
	c16.23,0,30.73-2.78,43.49-8.34c12.77-5.56,23.62-13.33,32.46-23.34c8.85-10,15.6-21.95,20.25-35.84
	c4.65-13.89,6.93-29.18,6.93-45.85v-242.03h52.8v242.03c0,22.98-3.55,44.27-10.76,63.92c-7.2,19.64-17.51,36.58-30.92,50.94
	c-13.41,14.35-29.82,25.66-49.15,33.81c-19.33,8.15-41.04,12.23-65.11,12.23c-24.08,0-45.78-4.08-65.11-12.23
	c-19.33-8.15-35.74-19.45-49.24-33.81c-13.5-14.36-23.8-31.31-31.01-50.94c-7.2-19.64-10.85-40.94-10.85-63.92v-242.03h52.8v241.75
	c0,16.67,2.37,31.95,7.02,45.85c4.65,13.89,11.4,25.84,20.24,35.84c8.84,10,19.69,17.78,32.56,23.44
	C5147.54,1904.23,5162.04,1907.1,5178.27,1907.1 M5837.31,1551.69v398.19h-46.51v-292.6c0-3.89,0.18-8.06,0.46-12.5
	c0.28-4.45,0.55-8.98,0.91-13.61l-134.6,248.97c-4.19,8.34-10.58,12.5-19.15,12.5h-7.66c-8.57,0-14.95-4.16-19.14-12.5
	l-137.34-250.08c1.1,9.82,1.64,18.9,1.64,27.23v292.6h-46.5v-398.19h39.12c4.75,0,8.4,0.46,10.94,1.39
	c2.56,0.93,5.02,3.53,7.39,7.78l135.42,245.08c2.19,4.44,4.37,9.08,6.47,13.89c2.1,4.82,4.01,9.73,5.84,14.73
	c1.82-5,3.74-10,5.74-14.91c2.01-4.91,4.2-9.54,6.56-13.99l132.95-244.8c2.19-4.26,4.65-6.85,7.3-7.78
	c2.64-0.92,6.29-1.39,11.03-1.39H5837.31z"/>
<path class="st3" d="M6493.36,1551.69v398.19h-46.51v-292.6c0-3.89,0.19-8.06,0.46-12.5c0.28-4.45,0.55-8.98,0.91-13.62
	l-134.6,248.97c-4.2,8.33-10.58,12.5-19.15,12.5h-7.66c-8.57,0-14.96-4.17-19.15-12.5l-137.33-250.09
	c1.09,9.82,1.64,18.9,1.64,27.23v292.6h-46.5v-398.19h39.12c4.74,0,8.39,0.46,10.94,1.39c2.55,0.93,5.02,3.52,7.38,7.78
	l135.42,245.08c2.18,4.44,4.37,9.08,6.48,13.89c2.1,4.82,4.01,9.73,5.83,14.73c1.82-5,3.74-10,5.75-14.91
	c2.01-4.91,4.19-9.54,6.57-13.99l132.95-244.8c2.19-4.26,4.65-6.85,7.29-7.78c2.65-0.92,6.29-1.39,11.03-1.39H6493.36z
	 M6835.33,1905.98l-0.28,43.9h-241.57v-398.19h241.57v43.9h-188.49v132.27h152.65v42.24h-152.65v135.88H6835.33z M7249.25,1750.93
	c0,29.83-4.65,56.96-13.95,81.42c-9.3,24.45-22.44,45.38-39.4,62.79c-16.96,17.42-37.3,30.84-61.1,40.38
	c-23.8,9.54-50.16,14.36-78.97,14.36h-146.36v-398.19h146.36c28.82,0,55.17,4.73,78.97,14.27c23.8,9.54,44.13,23.06,61.1,40.57
	c16.96,17.5,30.1,38.53,39.4,62.98C7244.59,1693.97,7249.25,1721.11,7249.25,1750.93 M7194.8,1750.93c0-24.45-3.28-46.32-9.85-65.58
	c-6.56-19.26-15.87-35.56-27.9-48.91c-12.04-13.33-26.63-23.52-43.77-30.56c-17.14-7.04-36.29-10.56-57.45-10.56h-93.29v310.94
	h93.29c21.15,0,40.31-3.52,57.45-10.56c17.15-7.04,31.73-17.23,43.77-30.47c12.04-13.24,21.34-29.45,27.9-48.72
	C7191.52,1797.24,7194.8,1775.38,7194.8,1750.93 M7451.42,1791.22v158.67h-53.07v-158.67l-143.62-239.53h46.5
	c4.75,0,8.48,1.11,11.22,3.43c2.73,2.32,5.1,5.38,7.11,9.07l89.74,154.78c3.28,6.48,6.29,12.5,9.03,18.15
	c2.73,5.65,5.11,11.4,7.11,17.14c2.01-5.74,4.29-11.48,6.84-17.14c2.56-5.65,5.38-11.67,8.48-18.15l89.46-154.78
	c1.64-3.14,3.92-6.02,6.84-8.61c2.92-2.59,6.66-3.89,11.21-3.89h46.78L7451.42,1791.22z M7900.08,1867.64c2.92,0,5.47,1.2,7.66,3.61
	l21.07,23.06c-16.05,18.89-35.47,33.62-58.36,44.18c-22.89,10.56-50.62,15.84-83.08,15.84c-28.09,0-53.63-5-76.6-14.91
	c-22.98-9.91-42.59-23.8-58.82-41.68c-16.23-17.88-28.81-39.27-37.75-64.28c-8.94-25-13.41-52.52-13.41-82.52
	c0-30.01,4.65-57.52,13.95-82.53c9.3-25,22.43-46.5,39.3-64.46c16.87-17.97,37.02-31.96,60.55-41.86
	c23.52-9.92,49.52-14.82,77.96-14.82c27.91,0,52.53,4.54,73.87,13.62c21.34,9.08,40.12,21.4,56.35,36.96l-17.5,24.73
	c-1.1,1.85-2.46,3.33-4.2,4.54c-1.73,1.21-4.1,1.85-7.02,1.85c-3.28,0-7.29-1.85-12.03-5.47c-4.74-3.61-10.95-7.59-18.6-12.04
	c-7.66-4.45-17.24-8.52-28.73-12.13c-11.48-3.61-25.62-5.37-42.4-5.37c-20.24,0-38.76,3.51-55.53,10.65
	c-16.78,7.13-31.19,17.51-43.32,31.03c-12.13,13.52-21.61,30.01-28.36,49.46c-6.75,19.46-10.12,41.4-10.12,65.86
	c0,24.82,3.56,46.96,10.58,66.41c7.02,19.45,16.59,35.84,28.72,49.28c12.12,13.43,26.45,23.71,42.95,30.75
	c16.51,7.04,34.29,10.56,53.44,10.56c11.67,0,22.25-0.74,31.64-2.13c9.4-1.39,18.06-3.52,25.99-6.48
	c7.94-2.96,15.32-6.76,22.17-11.3c6.84-4.54,13.58-9.91,20.33-16.2C7893.87,1869.02,7896.98,1867.64,7900.08,1867.64
	 M8251.9,1571.71c0,6.11-1.83,12.04-5.47,17.78l-221.87,316.5h224.05v43.9h-293.82v-21.12c0-2.97,0.55-5.74,1.55-8.34
	c1-2.59,2.18-5.09,3.65-7.5l222.41-317.33h-217.22v-43.9h286.71V1571.71z M8637.36,1551.69v398.19h-26.54
	c-4.19,0-7.66-0.75-10.49-2.23c-2.83-1.48-5.65-3.98-8.39-7.5l-226.79-300.1c0.37,4.63,0.64,9.17,0.82,13.62
	c0.18,4.44,0.28,8.61,0.28,12.51v283.71h-46.51v-398.19h27.36c2.38,0,4.38,0.09,6.02,0.37c1.64,0.28,3.1,0.75,4.38,1.4
	c1.27,0.64,2.55,1.57,3.83,2.77c1.28,1.21,2.64,2.78,4.11,4.63l226.79,299.82c-0.37-4.81-0.64-9.54-0.92-14.08
	c-0.27-4.54-0.45-8.79-0.45-12.87v-282.04H8637.36z M8979.33,1905.98l-0.27,43.9h-241.57v-398.19h241.57v43.9h-188.49v132.27h152.65
	v42.24h-152.65v135.88H8979.33z"/>
</svg>
