<?xml version="1.0" encoding="UTF-8"?>
<!DOCTYPE svg PUBLIC "-//W3C//DTD SVG 1.1//EN" "http://www.w3.org/Graphics/SVG/1.1/DTD/svg11.dtd">
<svg xmlns="http://www.w3.org/2000/svg" version="1.1" width="1757px" height="1002px" style="shape-rendering:geometricPrecision; text-rendering:geometricPrecision; image-rendering:optimizeQuality; fill-rule:evenodd; clip-rule:evenodd" xmlns:xlink="http://www.w3.org/1999/xlink">
<g><path style="opacity:1" fill="#fefefe" d="M -0.5,-0.5 C 585.167,-0.5 1170.83,-0.5 1756.5,-0.5C 1756.5,333.5 1756.5,667.5 1756.5,1001.5C 1170.83,1001.5 585.167,1001.5 -0.5,1001.5C -0.5,667.5 -0.5,333.5 -0.5,-0.5 Z"/></g>
<g><path style="opacity:1" fill="#0f8b95" d="M 900.5,113.5 C 899.957,113.56 899.624,113.893 899.5,114.5C 900.531,115.7 901.365,117.034 902,118.5C 905.38,121.558 908.546,124.891 911.5,128.5C 912.325,129.386 913.325,129.719 914.5,129.5C 914.5,130.5 914.5,131.5 914.5,132.5C 911.009,130.43 908.009,131.43 905.5,135.5C 904.549,136.326 903.549,136.492 902.5,136C 904.44,133.342 906.44,130.675 908.5,128C 905.354,125.688 902.354,123.188 899.5,120.5C 897.646,124.668 898.979,127.334 903.5,128.5C 902.38,130.596 900.88,130.93 899,129.5C 898.51,130.793 898.343,132.127 898.5,133.5C 897.5,133.5 896.5,133.5 895.5,133.5C 895.5,132.5 895.5,131.5 895.5,130.5C 894.5,130.5 893.5,130.5 892.5,130.5C 892.5,129.5 892.5,128.5 892.5,127.5C 891.167,127.5 889.833,127.5 888.5,127.5C 877.173,116.008 865.34,105.008 853,94.5C 851.775,94.8623 850.609,95.3623 849.5,96C 828.992,116.675 808.326,137.175 787.5,157.5C 787.082,156.778 786.416,156.278 785.5,156C 786.673,152.89 786.173,152.723 784,155.5C 783.833,155.167 783.667,154.833 783.5,154.5C 786.476,149.018 790.81,145.184 796.5,143C 796.201,141.68 796.034,140.18 796,138.5C 792.715,140.28 789.548,142.28 786.5,144.5C 787.44,147.052 786.44,147.886 783.5,147C 784.054,144.388 783.387,141.888 781.5,139.5C 777.796,137.759 774.129,137.593 770.5,139C 771.902,140.342 771.569,141.176 769.5,141.5C 766.218,142.488 762.885,143.154 759.5,143.5C 761.1,142.356 762.767,141.189 764.5,140C 771.833,137.333 779.167,134.667 786.5,132C 803.165,114.335 820.165,97.0016 837.5,80C 841.217,76.6153 845.217,73.6153 849.5,71C 854.519,70.1176 858.853,71.451 862.5,75C 875.369,87.7015 888.035,100.535 900.5,113.5 Z"/></g>
<g><path style="opacity:1" fill="#fcfdfd" d="M 888.5,127.5 C 905.16,144.327 921.66,161.327 938,178.5C 947.765,189.596 956.765,201.263 965,213.5C 968.554,219.94 971.554,226.607 974,233.5C 974.617,240.869 974.283,248.202 973,255.5C 967.127,287.2 956.794,317.2 942,345.5C 932.951,338.388 923.451,331.888 913.5,326C 899.476,320.155 885.809,313.488 872.5,306C 871.167,305.333 871.167,304.667 872.5,304C 908.658,279.53 920.158,246.363 907,204.5C 901.504,190.795 892.338,180.462 879.5,173.5C 842.682,159.379 815.848,170.045 799,205.5C 789.856,228.999 792.356,250.999 806.5,271.5C 813.331,284.095 822.331,295.095 833.5,304.5C 832.757,305.182 832.091,305.849 831.5,306.5C 806.285,318.608 781.285,330.941 756.5,343.5C 755.029,342.619 754.196,341.286 754,339.5C 750.558,326.777 747.058,314.11 743.5,301.5C 738.092,281.128 734.092,260.462 731.5,239.5C 732.681,227.139 737.181,216.139 745,206.5C 758.23,189.388 772.396,173.055 787.5,157.5C 808.326,137.175 828.992,116.675 849.5,96C 850.609,95.3623 851.775,94.8623 853,94.5C 865.34,105.008 877.173,116.008 888.5,127.5 Z"/></g>
<g><path style="opacity:1" fill="#0b8691" d="M 787.5,157.5 C 772.396,173.055 758.23,189.388 745,206.5C 737.181,216.139 732.681,227.139 731.5,239.5C 730.213,240.871 729.547,242.705 729.5,245C 730.333,250.49 730.5,255.99 730,261.5C 728.681,259.75 728.181,257.75 728.5,255.5C 726.5,255.5 724.5,255.5 722.5,255.5C 722.02,250.178 721.687,244.845 721.5,239.5C 720.167,239.5 718.833,239.5 717.5,239.5C 717.869,247.739 718.536,256.239 719.5,265C 719.672,268.477 719.006,271.644 717.5,274.5C 712.817,258.407 711.65,242.073 714,225.5C 722.364,203.944 734.864,185.111 751.5,169C 750.5,168.333 749.5,168.333 748.5,169C 690.755,203.656 654.422,253.823 639.5,319.5C 637.638,321.811 635.638,324.144 633.5,326.5C 634.63,333.45 634.797,340.45 634,347.5C 633.333,348.167 632.667,348.833 632,349.5C 631.505,347.527 631.338,345.527 631.5,343.5C 630.5,343.5 629.5,343.5 628.5,343.5C 628.666,347.846 628.499,352.179 628,356.5C 626.264,349.615 625.097,342.615 624.5,335.5C 623.719,336.729 623.219,338.062 623,339.5C 622.75,329.5 622.916,319.5 623.5,309.5C 640.745,239.395 680.745,186.228 743.5,150C 748.511,146.993 753.844,144.827 759.5,143.5C 762.885,143.154 766.218,142.488 769.5,141.5C 771.569,141.176 771.902,140.342 770.5,139C 774.129,137.593 777.796,137.759 781.5,139.5C 783.387,141.888 784.054,144.388 783.5,147C 786.44,147.886 787.44,147.052 786.5,144.5C 789.548,142.28 792.715,140.28 796,138.5C 796.034,140.18 796.201,141.68 796.5,143C 790.81,145.184 786.476,149.018 783.5,154.5C 783.667,154.833 783.833,155.167 784,155.5C 786.173,152.723 786.673,152.89 785.5,156C 786.416,156.278 787.082,156.778 787.5,157.5 Z"/></g>
<g><path style="opacity:1" fill="#fcfefd" d="M 861.5,187.5 C 874.115,190.282 882.948,197.615 888,209.5C 899.195,238.912 892.695,263.412 868.5,283C 863.596,286.906 858.43,290.406 853,293.5C 849.245,291.745 845.745,289.579 842.5,287C 839.667,282.833 836.167,279.333 832,276.5C 825.47,268.103 819.97,259.103 815.5,249.5C 809.43,227.304 814.764,208.47 831.5,193C 840.765,187.178 850.765,185.345 861.5,187.5 Z"/></g>
<g><path style="opacity:1" fill="#0e939d" d="M 879.5,173.5 C 882.483,177.75 886.15,181.417 890.5,184.5C 888.183,186.316 886.016,188.316 884,190.5C 881.977,188.987 882.144,187.654 884.5,186.5C 882.741,185.246 881.241,185.579 880,187.5C 879.365,186.034 878.531,184.7 877.5,183.5C 877.833,183.167 878.167,182.833 878.5,182.5C 880.505,185.028 882.171,184.695 883.5,181.5C 881.803,180.636 880.637,179.303 880,177.5C 879.439,178.022 878.772,178.355 878,178.5C 868.541,177.362 859.041,176.529 849.5,176C 851.5,175.667 853.5,175.333 855.5,175C 851.78,174.808 848.28,173.975 845,172.5C 844.167,172.833 843.333,173.167 842.5,173.5C 844.045,174.452 845.712,174.785 847.5,174.5C 847.5,175.5 847.5,176.5 847.5,177.5C 844.005,176.035 840.338,175.035 836.5,174.5C 830.479,174.255 830.145,175.089 835.5,177C 839.348,177.59 843.014,178.757 846.5,180.5C 849.3,179.268 852.3,178.601 855.5,178.5C 858.167,178.833 860.833,179.167 863.5,179.5C 868.151,181.491 872.484,183.991 876.5,187C 877.711,187.893 877.711,188.726 876.5,189.5C 872.83,187.095 868.83,185.429 864.5,184.5C 863.452,185.548 862.452,186.548 861.5,187.5C 850.765,185.345 840.765,187.178 831.5,193C 814.764,208.47 809.43,227.304 815.5,249.5C 815.344,252.066 815.678,254.566 816.5,257C 816.095,257.945 815.428,258.612 814.5,259C 816.134,259.494 817.801,259.66 819.5,259.5C 818.833,262.5 818.167,265.5 817.5,268.5C 819.5,267.833 821.5,267.167 823.5,266.5C 823.649,267.552 823.483,268.552 823,269.5C 818.888,272.39 816.888,276.39 817,281.5C 815.984,280.366 815.317,280.699 815,282.5C 813.695,279.702 812.195,277.035 810.5,274.5C 810.925,272.62 811.925,271.12 813.5,270C 812.462,266.974 811.128,266.807 809.5,269.5C 809.709,270.086 810.043,270.586 810.5,271C 809.207,271.49 807.873,271.657 806.5,271.5C 792.356,250.999 789.856,228.999 799,205.5C 815.848,170.045 842.682,159.379 879.5,173.5 Z"/></g>
<g><path style="opacity:1" fill="#fdfefe" d="M 1045.5,259.5 C 1051.08,270.478 1055.74,281.812 1059.5,293.5C 1063.43,305.216 1066.1,317.216 1067.5,329.5C 1068.38,348.818 1068.71,368.152 1068.5,387.5C 1062.45,442.769 1039.45,489.602 999.5,528C 983.795,541.937 966.629,553.77 948,563.5C 945.94,561.718 944.107,559.718 942.5,557.5C 933.885,545.945 927.051,533.278 922,519.5C 921.173,511.397 921.673,503.397 923.5,495.5C 923.5,494.833 923.5,494.167 923.5,493.5C 931.358,474.776 939.525,456.109 948,437.5C 950.793,430.323 952.96,422.99 954.5,415.5C 955.371,412.997 956.037,410.33 956.5,407.5C 957.117,407.389 957.617,407.056 958,406.5C 959.049,393.879 958.549,381.379 956.5,369C 957.322,365.859 957.989,362.693 958.5,359.5C 958.5,358.833 958.5,358.167 958.5,357.5C 973.85,324.953 985.35,290.953 993,255.5C 995.814,237.571 992.481,220.904 983,205.5C 974.692,191.852 964.858,179.352 953.5,168C 980.393,181.692 1003.39,200.525 1022.5,224.5C 1030.69,235.985 1038.36,247.652 1045.5,259.5 Z"/></g>
<g><path style="opacity:1" fill="#0f9ba6" d="M 900.5,113.5 C 907.298,119.797 913.965,126.297 920.5,133C 977.592,151.13 1022.09,185.297 1054,235.5C 1063.04,249.92 1070.21,265.253 1075.5,281.5C 1073.94,286.936 1072.94,292.603 1072.5,298.5C 1077.09,303.165 1079.43,308.832 1079.5,315.5C 1078.5,315.5 1077.5,315.5 1076.5,315.5C 1075.91,311.409 1074.91,307.409 1073.5,303.5C 1072.75,304.376 1072.25,305.376 1072,306.5C 1071.67,304.167 1071.33,301.833 1071,299.5C 1070.67,299.833 1070.33,300.167 1070,300.5C 1070.64,304.749 1071.14,309.083 1071.5,313.5C 1071.49,319.941 1070.49,325.941 1068.5,331.5C 1068.67,330.508 1068.34,329.842 1067.5,329.5C 1066.1,317.216 1063.43,305.216 1059.5,293.5C 1061.12,295.121 1062.28,297.121 1063,299.5C 1065.04,306.067 1066.87,312.734 1068.5,319.5C 1069.91,313.129 1069.25,306.962 1066.5,301C 1066.32,298.696 1066.98,298.196 1068.5,299.5C 1070.68,293.592 1072.02,287.425 1072.5,281C 1072.2,279.112 1071.7,277.278 1071,275.5C 1068.91,278.845 1067.58,282.512 1067,286.5C 1066.33,285.833 1065.67,285.167 1065,284.5C 1064.71,281.47 1064.55,278.636 1064.5,276C 1065.45,275.517 1066.45,275.351 1067.5,275.5C 1067.36,273.738 1067.69,272.071 1068.5,270.5C 1066.13,265.742 1064.29,260.742 1063,255.5C 1061.69,252.865 1060.02,250.531 1058,248.5C 1057.33,250.167 1057.33,251.833 1058,253.5C 1060.93,259.009 1063.43,264.676 1065.5,270.5C 1064.31,271.429 1062.98,271.762 1061.5,271.5C 1059.66,265.944 1057.32,260.611 1054.5,255.5C 1053.32,257.046 1052.32,258.713 1051.5,260.5C 1051.17,260.333 1050.83,260.167 1050.5,260C 1049.09,256.945 1047.92,253.778 1047,250.5C 1046.31,251.025 1045.81,251.692 1045.5,252.5C 1045.84,254.655 1045.84,256.989 1045.5,259.5C 1038.36,247.652 1030.69,235.985 1022.5,224.5C 1003.39,200.525 980.393,181.692 953.5,168C 964.858,179.352 974.692,191.852 983,205.5C 992.481,220.904 995.814,237.571 993,255.5C 985.35,290.953 973.85,324.953 958.5,357.5C 958.335,354.15 958.502,350.817 959,347.5C 959.333,348.833 959.667,350.167 960,351.5C 960.167,350.5 960.333,349.5 960.5,348.5C 959.668,345.518 959.501,342.518 960,339.5C 960.202,341.256 960.702,342.922 961.5,344.5C 962.881,344 963.547,343 963.5,341.5C 963.075,339.62 962.075,338.12 960.5,337C 961.524,334.822 961.357,332.655 960,330.5C 958.916,331.665 958.083,332.998 957.5,334.5C 956.311,335.429 954.978,335.762 953.5,335.5C 953.128,332.978 953.961,330.978 956,329.5C 956.67,321.872 955.337,321.539 952,328.5C 949.559,332.969 949.059,337.635 950.5,342.5C 951.427,340.887 952.261,339.221 953,337.5C 954.011,336.663 955.178,336.33 956.5,336.5C 957.042,340.544 956.209,344.211 954,347.5C 953.333,346.833 952.667,346.167 952,345.5C 951.632,346.91 950.799,347.91 949.5,348.5C 949.419,350.633 948.919,352.633 948,354.5C 946.383,352.418 944.383,350.752 942,349.5C 940.079,351.003 937.912,351.669 935.5,351.5C 935.769,353.429 935.269,355.095 934,356.5C 931.888,354.364 932.055,352.364 934.5,350.5C 934,350.167 933.5,349.833 933,349.5C 931.667,350.167 930.333,350.833 929,351.5C 926.948,349.944 925.448,347.944 924.5,345.5C 926.006,344.253 927.506,344.253 929,345.5C 930.845,344.95 932.345,343.95 933.5,342.5C 931.674,339.919 929.841,339.919 928,342.5C 927.506,340.866 927.34,339.199 927.5,337.5C 926.167,337.5 924.833,337.5 923.5,337.5C 923.703,339.39 923.037,340.89 921.5,342C 918.122,342.048 914.789,341.548 911.5,340.5C 911.279,342.664 910.279,344.33 908.5,345.5C 889.366,337.121 870.7,327.787 852.5,317.5C 840.346,323.743 828.012,329.743 815.5,335.5C 815.511,333.983 816.177,332.816 817.5,332C 820.527,331.139 823.194,329.639 825.5,327.5C 824.167,326.833 822.833,326.167 821.5,325.5C 821.709,324.914 822.043,324.414 822.5,324C 825.291,322.211 828.291,320.878 831.5,320C 828.146,319.545 824.813,319.045 821.5,318.5C 821.477,315.879 822.811,314.545 825.5,314.5C 827.405,315.065 829.071,316.065 830.5,317.5C 839.23,312.631 842.23,305.298 839.5,295.5C 841.262,295.357 842.929,295.691 844.5,296.5C 845.308,296.192 845.975,295.692 846.5,295C 843.953,292.731 841.953,290.065 840.5,287C 836.733,287.611 833.066,287.277 829.5,286C 829.232,288.476 828.898,290.976 828.5,293.5C 825.751,290.436 824.251,286.77 824,282.5C 822.989,281.663 821.822,281.33 820.5,281.5C 820.336,284.187 820.503,286.854 821,289.5C 824.061,292.899 827.394,295.899 831,298.5C 831.333,297.833 831.667,297.167 832,296.5C 835.239,300.398 835.906,304.732 834,309.5C 833.586,309.957 833.086,310.291 832.5,310.5C 831.571,309.311 831.238,307.978 831.5,306.5C 832.091,305.849 832.757,305.182 833.5,304.5C 822.331,295.095 813.331,284.095 806.5,271.5C 807.873,271.657 809.207,271.49 810.5,271C 810.043,270.586 809.709,270.086 809.5,269.5C 811.128,266.807 812.462,266.974 813.5,270C 811.925,271.12 810.925,272.62 810.5,274.5C 812.195,277.035 813.695,279.702 815,282.5C 815.317,280.699 815.984,280.366 817,281.5C 816.888,276.39 818.888,272.39 823,269.5C 823.483,268.552 823.649,267.552 823.5,266.5C 821.5,267.167 819.5,267.833 817.5,268.5C 818.167,265.5 818.833,262.5 819.5,259.5C 817.801,259.66 816.134,259.494 814.5,259C 815.428,258.612 816.095,257.945 816.5,257C 815.678,254.566 815.344,252.066 815.5,249.5C 819.97,259.103 825.47,268.103 832,276.5C 836.167,279.333 839.667,282.833 842.5,287C 845.745,289.579 849.245,291.745 853,293.5C 858.43,290.406 863.596,286.906 868.5,283C 892.695,263.412 899.195,238.912 888,209.5C 882.948,197.615 874.115,190.282 861.5,187.5C 862.452,186.548 863.452,185.548 864.5,184.5C 868.83,185.429 872.83,187.095 876.5,189.5C 877.711,188.726 877.711,187.893 876.5,187C 872.484,183.991 868.151,181.491 863.5,179.5C 860.833,179.167 858.167,178.833 855.5,178.5C 852.3,178.601 849.3,179.268 846.5,180.5C 843.014,178.757 839.348,177.59 835.5,177C 830.145,175.089 830.479,174.255 836.5,174.5C 840.338,175.035 844.005,176.035 847.5,177.5C 847.5,176.5 847.5,175.5 847.5,174.5C 845.712,174.785 844.045,174.452 842.5,173.5C 843.333,173.167 844.167,172.833 845,172.5C 848.28,173.975 851.78,174.808 855.5,175C 853.5,175.333 851.5,175.667 849.5,176C 859.041,176.529 868.541,177.362 878,178.5C 878.772,178.355 879.439,178.022 880,177.5C 880.637,179.303 881.803,180.636 883.5,181.5C 882.171,184.695 880.505,185.028 878.5,182.5C 878.167,182.833 877.833,183.167 877.5,183.5C 878.531,184.7 879.365,186.034 880,187.5C 881.241,185.579 882.741,185.246 884.5,186.5C 882.144,187.654 881.977,188.987 884,190.5C 886.016,188.316 888.183,186.316 890.5,184.5C 886.15,181.417 882.483,177.75 879.5,173.5C 892.338,180.462 901.504,190.795 907,204.5C 920.158,246.363 908.658,279.53 872.5,304C 871.167,304.667 871.167,305.333 872.5,306C 885.809,313.488 899.476,320.155 913.5,326C 923.451,331.888 932.951,338.388 942,345.5C 956.794,317.2 967.127,287.2 973,255.5C 974.283,248.202 974.617,240.869 974,233.5C 971.554,226.607 968.554,219.94 965,213.5C 956.765,201.263 947.765,189.596 938,178.5C 921.66,161.327 905.16,144.327 888.5,127.5C 889.833,127.5 891.167,127.5 892.5,127.5C 892.5,128.5 892.5,129.5 892.5,130.5C 893.5,130.5 894.5,130.5 895.5,130.5C 895.5,131.5 895.5,132.5 895.5,133.5C 896.5,133.5 897.5,133.5 898.5,133.5C 898.343,132.127 898.51,130.793 899,129.5C 900.88,130.93 902.38,130.596 903.5,128.5C 898.979,127.334 897.646,124.668 899.5,120.5C 902.354,123.188 905.354,125.688 908.5,128C 906.44,130.675 904.44,133.342 902.5,136C 903.549,136.492 904.549,136.326 905.5,135.5C 908.009,131.43 911.009,130.43 914.5,132.5C 914.5,131.5 914.5,130.5 914.5,129.5C 913.325,129.719 912.325,129.386 911.5,128.5C 908.546,124.891 905.38,121.558 902,118.5C 901.365,117.034 900.531,115.7 899.5,114.5C 899.624,113.893 899.957,113.56 900.5,113.5 Z"/></g>
<g><path style="opacity:1" fill="#0b909a" d="M 731.5,239.5 C 734.092,260.462 738.092,281.128 743.5,301.5C 742.685,302.429 741.852,303.429 741,304.5C 740.754,307.89 740.254,311.223 739.5,314.5C 740.149,317.322 741.815,319.155 744.5,320C 744.448,325.108 744.115,330.274 743.5,335.5C 742.684,337.287 741.684,338.954 740.5,340.5C 740.167,339.667 739.833,338.833 739.5,338C 742.793,332.408 743.293,326.575 741,320.5C 739.644,319.62 738.144,319.286 736.5,319.5C 737.362,324.813 737.529,330.146 737,335.5C 736.206,332.529 735.539,329.529 735,326.5C 734.612,331.511 734.778,336.511 735.5,341.5C 728.246,319.594 722.246,297.261 717.5,274.5C 719.006,271.644 719.672,268.477 719.5,265C 718.536,256.239 717.869,247.739 717.5,239.5C 718.833,239.5 720.167,239.5 721.5,239.5C 721.687,244.845 722.02,250.178 722.5,255.5C 724.5,255.5 726.5,255.5 728.5,255.5C 728.181,257.75 728.681,259.75 730,261.5C 730.5,255.99 730.333,250.49 729.5,245C 729.547,242.705 730.213,240.871 731.5,239.5 Z"/></g>
<g><path style="opacity:1" fill="#0993a1" d="M 1059.5,293.5 C 1055.74,281.812 1051.08,270.478 1045.5,259.5C 1045.84,256.989 1045.84,254.655 1045.5,252.5C 1045.81,251.692 1046.31,251.025 1047,250.5C 1047.92,253.778 1049.09,256.945 1050.5,260C 1050.83,260.167 1051.17,260.333 1051.5,260.5C 1052.32,258.713 1053.32,257.046 1054.5,255.5C 1057.32,260.611 1059.66,265.944 1061.5,271.5C 1062.98,271.762 1064.31,271.429 1065.5,270.5C 1063.43,264.676 1060.93,259.009 1058,253.5C 1057.33,251.833 1057.33,250.167 1058,248.5C 1060.02,250.531 1061.69,252.865 1063,255.5C 1064.29,260.742 1066.13,265.742 1068.5,270.5C 1067.69,272.071 1067.36,273.738 1067.5,275.5C 1066.45,275.351 1065.45,275.517 1064.5,276C 1064.55,278.636 1064.71,281.47 1065,284.5C 1065.67,285.167 1066.33,285.833 1067,286.5C 1067.58,282.512 1068.91,278.845 1071,275.5C 1071.7,277.278 1072.2,279.112 1072.5,281C 1072.02,287.425 1070.68,293.592 1068.5,299.5C 1066.98,298.196 1066.32,298.696 1066.5,301C 1069.25,306.962 1069.91,313.129 1068.5,319.5C 1066.87,312.734 1065.04,306.067 1063,299.5C 1062.28,297.121 1061.12,295.121 1059.5,293.5 Z"/></g>
<g><path style="opacity:1" fill="#0b8d98" d="M 1075.5,281.5 C 1087.22,314.568 1091.55,348.568 1088.5,383.5C 1087.72,375.525 1087.39,367.525 1087.5,359.5C 1084.83,359.5 1082.17,359.5 1079.5,359.5C 1079.5,362.167 1079.5,364.833 1079.5,367.5C 1076.83,367.5 1074.17,367.5 1071.5,367.5C 1071.82,361.974 1071.49,356.64 1070.5,351.5C 1069.89,344.825 1069.23,338.158 1068.5,331.5C 1070.49,325.941 1071.49,319.941 1071.5,313.5C 1071.14,309.083 1070.64,304.749 1070,300.5C 1070.33,300.167 1070.67,299.833 1071,299.5C 1071.33,301.833 1071.67,304.167 1072,306.5C 1072.25,305.376 1072.75,304.376 1073.5,303.5C 1074.91,307.409 1075.91,311.409 1076.5,315.5C 1077.5,315.5 1078.5,315.5 1079.5,315.5C 1079.43,308.832 1077.09,303.165 1072.5,298.5C 1072.94,292.603 1073.94,286.936 1075.5,281.5 Z"/></g>
<g><path style="opacity:1" fill="#fcfefe" d="M 908.5,345.5 C 935.761,360.061 944.928,382.394 936,412.5C 933.847,418.775 931.847,425.108 930,431.5C 926.953,436.927 924.453,442.594 922.5,448.5C 915.62,461.615 909.787,475.282 905,489.5C 900.171,508.334 902.171,526.334 911,543.5C 914.972,550.617 919.472,557.284 924.5,563.5C 925.37,566.378 926.703,569.045 928.5,571.5C 923.582,573.912 918.582,575.912 913.5,577.5C 897.142,581.893 880.476,584.559 863.5,585.5C 852.828,585.667 842.161,585.5 831.5,585C 815.273,582.797 799.273,579.63 783.5,575.5C 783.343,574.127 783.51,572.793 784,571.5C 792.271,558.29 798.938,544.29 804,529.5C 805.33,523.548 805.663,517.548 805,511.5C 803.478,501.742 801.478,492.076 799,482.5C 785.997,442.992 773.497,403.326 761.5,363.5C 761.833,362.833 762.167,362.167 762.5,361.5C 780.003,352.447 797.67,343.78 815.5,335.5C 828.012,329.743 840.346,323.743 852.5,317.5C 870.7,327.787 889.366,337.121 908.5,345.5 Z"/></g>
<g><path style="opacity:1" fill="#118d98" d="M 623.5,309.5 C 622.916,319.5 622.75,329.5 623,339.5C 623.219,338.062 623.719,336.729 624.5,335.5C 625.097,342.615 626.264,349.615 628,356.5C 628.499,352.179 628.666,347.846 628.5,343.5C 629.5,343.5 630.5,343.5 631.5,343.5C 631.338,345.527 631.505,347.527 632,349.5C 632.667,348.833 633.333,348.167 634,347.5C 634.797,340.45 634.63,333.45 633.5,326.5C 635.638,324.144 637.638,321.811 639.5,319.5C 635.472,346.034 634.472,372.701 636.5,399.5C 635.683,402.479 634.849,405.479 634,408.5C 633.821,405.447 633.321,402.447 632.5,399.5C 631.757,400.908 630.923,402.241 630,403.5C 629.667,403.167 629.333,402.833 629,402.5C 629.132,396.138 628.298,389.805 626.5,383.5C 625.17,392.567 625.504,401.567 627.5,410.5C 628.5,410.5 629.5,410.5 630.5,410.5C 629.758,417.517 629.425,424.517 629.5,431.5C 626.345,418.545 623.845,405.211 622,391.5C 621.296,393.278 620.796,395.112 620.5,397C 621.286,400.458 621.62,403.958 621.5,407.5C 614.45,374.69 615.117,342.024 623.5,309.5 Z"/></g>
<g><path style="opacity:1" fill="#0897a2" d="M 958.5,357.5 C 958.5,358.167 958.5,358.833 958.5,359.5C 953.822,364.977 953.322,370.977 957,377.5C 957.729,387.527 957.563,397.527 956.5,407.5C 956.037,410.33 955.371,412.997 954.5,415.5C 953.022,416.97 951.689,418.637 950.5,420.5C 949.702,418.922 949.202,417.256 949,415.5C 945.622,420.878 944.789,426.711 946.5,433C 945.236,436.076 944.236,439.243 943.5,442.5C 940.551,443.733 939.884,445.733 941.5,448.5C 938.241,453.018 936.075,458.018 935,463.5C 933.211,466.179 932.045,466.013 931.5,463C 932.73,459.143 934.064,455.309 935.5,451.5C 934.902,450.205 934.402,448.872 934,447.5C 931.817,451.703 929.817,456.036 928,460.5C 927.178,458.212 926.511,455.878 926,453.5C 924.331,452.154 923.164,450.487 922.5,448.5C 924.453,442.594 926.953,436.927 930,431.5C 931.847,425.108 933.847,418.775 936,412.5C 944.928,382.394 935.761,360.061 908.5,345.5C 910.279,344.33 911.279,342.664 911.5,340.5C 914.789,341.548 918.122,342.048 921.5,342C 923.037,340.89 923.703,339.39 923.5,337.5C 924.833,337.5 926.167,337.5 927.5,337.5C 927.34,339.199 927.506,340.866 928,342.5C 929.841,339.919 931.674,339.919 933.5,342.5C 932.345,343.95 930.845,344.95 929,345.5C 927.506,344.253 926.006,344.253 924.5,345.5C 925.448,347.944 926.948,349.944 929,351.5C 930.333,350.833 931.667,350.167 933,349.5C 933.5,349.833 934,350.167 934.5,350.5C 932.055,352.364 931.888,354.364 934,356.5C 935.269,355.095 935.769,353.429 935.5,351.5C 937.912,351.669 940.079,351.003 942,349.5C 944.383,350.752 946.383,352.418 948,354.5C 948.919,352.633 949.419,350.633 949.5,348.5C 950.799,347.91 951.632,346.91 952,345.5C 952.667,346.167 953.333,346.833 954,347.5C 956.209,344.211 957.042,340.544 956.5,336.5C 955.178,336.33 954.011,336.663 953,337.5C 952.261,339.221 951.427,340.887 950.5,342.5C 949.059,337.635 949.559,332.969 952,328.5C 955.337,321.539 956.67,321.872 956,329.5C 953.961,330.978 953.128,332.978 953.5,335.5C 954.978,335.762 956.311,335.429 957.5,334.5C 958.083,332.998 958.916,331.665 960,330.5C 961.357,332.655 961.524,334.822 960.5,337C 962.075,338.12 963.075,339.62 963.5,341.5C 963.547,343 962.881,344 961.5,344.5C 960.702,342.922 960.202,341.256 960,339.5C 959.501,342.518 959.668,345.518 960.5,348.5C 960.333,349.5 960.167,350.5 960,351.5C 959.667,350.167 959.333,348.833 959,347.5C 958.502,350.817 958.335,354.15 958.5,357.5 Z"/></g>
<g><path style="opacity:1" fill="#daf7f8" d="M 1067.5,329.5 C 1068.34,329.842 1068.67,330.508 1068.5,331.5C 1069.23,338.158 1069.89,344.825 1070.5,351.5C 1070.67,361.172 1070.5,370.839 1070,380.5C 1069.81,383.036 1069.31,385.369 1068.5,387.5C 1068.71,368.152 1068.38,348.818 1067.5,329.5 Z"/></g>
<g><path style="opacity:1" fill="#c8f2f3" d="M 958.5,359.5 C 957.989,362.693 957.322,365.859 956.5,369C 958.549,381.379 959.049,393.879 958,406.5C 957.617,407.056 957.117,407.389 956.5,407.5C 957.563,397.527 957.729,387.527 957,377.5C 953.322,370.977 953.822,364.977 958.5,359.5 Z"/></g>
<g><path style="opacity:1" fill="#12949d" d="M 636.5,399.5 C 639.681,418.24 643.848,436.907 649,455.5C 650.456,462.708 650.622,469.874 649.5,477C 648.5,477.667 647.5,477.667 646.5,477C 641.771,471.044 637.938,464.544 635,457.5C 632.201,448.769 629.201,440.103 626,431.5C 623.954,423.552 622.454,415.552 621.5,407.5C 621.62,403.958 621.286,400.458 620.5,397C 620.796,395.112 621.296,393.278 622,391.5C 623.845,405.211 626.345,418.545 629.5,431.5C 629.425,424.517 629.758,417.517 630.5,410.5C 629.5,410.5 628.5,410.5 627.5,410.5C 625.504,401.567 625.17,392.567 626.5,383.5C 628.298,389.805 629.132,396.138 629,402.5C 629.333,402.833 629.667,403.167 630,403.5C 630.923,402.241 631.757,400.908 632.5,399.5C 633.321,402.447 633.821,405.447 634,408.5C 634.849,405.479 635.683,402.479 636.5,399.5 Z"/></g>
<g><path style="opacity:1" fill="#0e99a4" d="M 815.5,335.5 C 797.67,343.78 780.003,352.447 762.5,361.5C 762.167,362.167 761.833,362.833 761.5,363.5C 773.497,403.326 785.997,442.992 799,482.5C 801.478,492.076 803.478,501.742 805,511.5C 805.663,517.548 805.33,523.548 804,529.5C 798.938,544.29 792.271,558.29 784,571.5C 783.51,572.793 783.343,574.127 783.5,575.5C 799.273,579.63 815.273,582.797 831.5,585C 842.161,585.5 852.828,585.667 863.5,585.5C 858.36,586.488 853.026,586.821 847.5,586.5C 847.5,587.833 847.5,589.167 847.5,590.5C 839.62,590.28 831.953,588.947 824.5,586.5C 823.289,587.274 823.289,588.107 824.5,589C 832.739,590.206 833.073,591.206 825.5,592C 827.473,592.495 829.473,592.662 831.5,592.5C 831.5,593.5 831.5,594.5 831.5,595.5C 819.031,595.735 806.697,595.235 794.5,594C 796.576,595.199 798.242,596.699 799.5,598.5C 761.71,591.36 729.877,573.693 704,545.5C 670.865,501.766 665.865,455.099 689,405.5C 700.883,385.117 716.716,368.45 736.5,355.5C 736.833,354.333 737.167,353.167 737.5,352C 736.724,348.511 736.058,345.011 735.5,341.5C 734.778,336.511 734.612,331.511 735,326.5C 735.539,329.529 736.206,332.529 737,335.5C 737.529,330.146 737.362,324.813 736.5,319.5C 738.144,319.286 739.644,319.62 741,320.5C 743.293,326.575 742.793,332.408 739.5,338C 739.833,338.833 740.167,339.667 740.5,340.5C 741.684,338.954 742.684,337.287 743.5,335.5C 744.115,330.274 744.448,325.108 744.5,320C 741.815,319.155 740.149,317.322 739.5,314.5C 740.254,311.223 740.754,307.89 741,304.5C 741.852,303.429 742.685,302.429 743.5,301.5C 747.058,314.11 750.558,326.777 754,339.5C 754.196,341.286 755.029,342.619 756.5,343.5C 781.285,330.941 806.285,318.608 831.5,306.5C 831.238,307.978 831.571,309.311 832.5,310.5C 833.086,310.291 833.586,309.957 834,309.5C 835.906,304.732 835.239,300.398 832,296.5C 831.667,297.167 831.333,297.833 831,298.5C 827.394,295.899 824.061,292.899 821,289.5C 820.503,286.854 820.336,284.187 820.5,281.5C 821.822,281.33 822.989,281.663 824,282.5C 824.251,286.77 825.751,290.436 828.5,293.5C 828.898,290.976 829.232,288.476 829.5,286C 833.066,287.277 836.733,287.611 840.5,287C 841.953,290.065 843.953,292.731 846.5,295C 845.975,295.692 845.308,296.192 844.5,296.5C 842.929,295.691 841.262,295.357 839.5,295.5C 842.23,305.298 839.23,312.631 830.5,317.5C 829.071,316.065 827.405,315.065 825.5,314.5C 822.811,314.545 821.477,315.879 821.5,318.5C 824.813,319.045 828.146,319.545 831.5,320C 828.291,320.878 825.291,322.211 822.5,324C 822.043,324.414 821.709,324.914 821.5,325.5C 822.833,326.167 824.167,326.833 825.5,327.5C 823.194,329.639 820.527,331.139 817.5,332C 816.177,332.816 815.511,333.983 815.5,335.5 Z"/></g>
<g><path style="opacity:1" fill="#fcfefd" d="M 742.5,374.5 C 743.496,374.414 744.329,374.748 745,375.5C 755.834,411.684 767.167,447.684 779,483.5C 781.92,492.677 784.253,502.011 786,511.5C 787.088,519.113 786.088,526.446 783,533.5C 776.961,544.933 770.461,555.933 763.5,566.5C 737.067,554.371 717.234,535.371 704,509.5C 686.256,468.105 691.589,430.105 720,395.5C 727.095,387.9 734.595,380.9 742.5,374.5 Z"/></g>
<g><path style="opacity:1" fill="#1199a4" d="M 850.5,524.5 C 856.376,510.431 857.043,496.098 852.5,481.5C 848.539,459.403 844.039,437.403 839,415.5C 838.333,407.5 838.333,399.5 839,391.5C 841.87,380.786 845.536,370.453 850,360.5C 851.377,358.246 852.877,356.08 854.5,354C 856.108,353.342 857.275,353.842 858,355.5C 858.09,362.297 857.09,368.964 855,375.5C 854.014,391.617 855.014,407.617 858,423.5C 862.121,443.534 866.454,463.534 871,483.5C 872.517,495.197 871.184,506.531 867,517.5C 864,523.5 861,529.5 858,535.5C 855.45,539.192 851.95,540.858 847.5,540.5C 848.5,535.167 849.5,529.833 850.5,524.5 Z"/></g>
<g><path style="opacity:1" fill="#0c838d" d="M 1070.5,351.5 C 1071.49,356.64 1071.82,361.974 1071.5,367.5C 1074.17,367.5 1076.83,367.5 1079.5,367.5C 1079.5,364.833 1079.5,362.167 1079.5,359.5C 1082.17,359.5 1084.83,359.5 1087.5,359.5C 1087.39,367.525 1087.72,375.525 1088.5,383.5C 1081.43,459.497 1047.1,519.664 985.5,564C 950.938,587.132 912.938,600.632 871.5,604.5C 873.635,602.631 876.302,601.964 879.5,602.5C 879.5,600.5 879.5,598.5 879.5,596.5C 874.156,596.666 868.823,596.499 863.5,596C 868.824,594.769 874.157,593.602 879.5,592.5C 851.686,588.877 851.686,587.877 879.5,589.5C 879.5,588.5 879.5,587.5 879.5,586.5C 883.182,586.665 886.848,586.499 890.5,586C 891.167,585.333 891.833,584.667 892.5,584C 898.294,583.554 903.96,582.554 909.5,581C 908.5,580.667 907.5,580.333 906.5,580C 910.883,580.996 915.216,580.663 919.5,579C 917.75,577.681 915.75,577.181 913.5,577.5C 918.582,575.912 923.582,573.912 928.5,571.5C 926.703,569.045 925.37,566.378 924.5,563.5C 925.29,562.206 926.29,561.039 927.5,560C 926.062,559.781 924.729,559.281 923.5,558.5C 922.876,556.246 921.543,554.579 919.5,553.5C 918.554,549.657 917.554,545.824 916.5,542C 916.78,540.605 917.447,539.438 918.5,538.5C 919.723,546.374 922.89,547.374 928,541.5C 932.741,546.652 936.741,552.318 940,558.5C 940.671,557.748 941.504,557.414 942.5,557.5C 944.107,559.718 945.94,561.718 948,563.5C 966.629,553.77 983.795,541.937 999.5,528C 1039.45,489.602 1062.45,442.769 1068.5,387.5C 1069.31,385.369 1069.81,383.036 1070,380.5C 1070.5,370.839 1070.67,361.172 1070.5,351.5 Z"/></g>
<g><path style="opacity:1" fill="#169299" d="M 954.5,415.5 C 952.96,422.99 950.793,430.323 948,437.5C 939.525,456.109 931.358,474.776 923.5,493.5C 923.022,489.071 923.688,484.904 925.5,481C 925.097,479.527 924.43,478.194 923.5,477C 925.283,475.933 925.783,474.433 925,472.5C 922.929,475.416 921.595,475.082 921,471.5C 919.885,473 919.052,474.667 918.5,476.5C 917.272,478.321 915.606,479.321 913.5,479.5C 913.711,484.328 913.711,488.995 913.5,493.5C 913.167,494.167 912.833,494.833 912.5,495.5C 911.672,491.204 911.172,486.871 911,482.5C 910.019,484.96 909.185,487.46 908.5,490C 910.541,497.63 911.041,505.463 910,513.5C 909.667,513.833 909.333,514.167 909,514.5C 908.058,510.532 907.225,506.532 906.5,502.5C 905.808,503.025 905.308,503.692 905,504.5C 904.121,515.629 905.788,526.296 910,536.5C 911.079,538.394 912.413,538.727 914,537.5C 915.356,524.696 917.69,525.029 921,538.5C 922.356,539.38 923.856,539.714 925.5,539.5C 925.394,536.892 924.228,534.892 922,533.5C 919.507,522.925 918.674,512.258 919.5,501.5C 920.385,499.023 921.718,497.023 923.5,495.5C 921.673,503.397 921.173,511.397 922,519.5C 927.051,533.278 933.885,545.945 942.5,557.5C 941.504,557.414 940.671,557.748 940,558.5C 936.741,552.318 932.741,546.652 928,541.5C 922.89,547.374 919.723,546.374 918.5,538.5C 917.447,539.438 916.78,540.605 916.5,542C 917.554,545.824 918.554,549.657 919.5,553.5C 921.543,554.579 922.876,556.246 923.5,558.5C 924.729,559.281 926.062,559.781 927.5,560C 926.29,561.039 925.29,562.206 924.5,563.5C 919.472,557.284 914.972,550.617 911,543.5C 902.171,526.334 900.171,508.334 905,489.5C 909.787,475.282 915.62,461.615 922.5,448.5C 923.164,450.487 924.331,452.154 926,453.5C 926.511,455.878 927.178,458.212 928,460.5C 929.817,456.036 931.817,451.703 934,447.5C 934.402,448.872 934.902,450.205 935.5,451.5C 934.064,455.309 932.73,459.143 931.5,463C 932.045,466.013 933.211,466.179 935,463.5C 936.075,458.018 938.241,453.018 941.5,448.5C 939.884,445.733 940.551,443.733 943.5,442.5C 944.236,439.243 945.236,436.076 946.5,433C 944.789,426.711 945.622,420.878 949,415.5C 949.202,417.256 949.702,418.922 950.5,420.5C 951.689,418.637 953.022,416.97 954.5,415.5 Z"/></g>
<g><path style="opacity:1" fill="#028d9a" d="M 923.5,493.5 C 923.5,494.167 923.5,494.833 923.5,495.5C 921.718,497.023 920.385,499.023 919.5,501.5C 918.674,512.258 919.507,522.925 922,533.5C 924.228,534.892 925.394,536.892 925.5,539.5C 923.856,539.714 922.356,539.38 921,538.5C 917.69,525.029 915.356,524.696 914,537.5C 912.413,538.727 911.079,538.394 910,536.5C 905.788,526.296 904.121,515.629 905,504.5C 905.308,503.692 905.808,503.025 906.5,502.5C 907.225,506.532 908.058,510.532 909,514.5C 909.333,514.167 909.667,513.833 910,513.5C 911.041,505.463 910.541,497.63 908.5,490C 909.185,487.46 910.019,484.96 911,482.5C 911.172,486.871 911.672,491.204 912.5,495.5C 912.833,494.833 913.167,494.167 913.5,493.5C 913.711,488.995 913.711,484.328 913.5,479.5C 915.606,479.321 917.272,478.321 918.5,476.5C 919.052,474.667 919.885,473 921,471.5C 921.595,475.082 922.929,475.416 925,472.5C 925.783,474.433 925.283,475.933 923.5,477C 924.43,478.194 925.097,479.527 925.5,481C 923.688,484.904 923.022,489.071 923.5,493.5 Z"/></g>
<g><path style="opacity:1" fill="#d4f5f5" d="M 852.5,481.5 C 857.043,496.098 856.376,510.431 850.5,524.5C 853.674,510.336 854.341,496.003 852.5,481.5 Z"/></g>
<g><path style="opacity:1" fill="#0e8e98" d="M 913.5,577.5 C 915.75,577.181 917.75,577.681 919.5,579C 915.216,580.663 910.883,580.996 906.5,580C 907.5,580.333 908.5,580.667 909.5,581C 903.96,582.554 898.294,583.554 892.5,584C 891.833,584.667 891.167,585.333 890.5,586C 886.848,586.499 883.182,586.665 879.5,586.5C 879.5,587.5 879.5,588.5 879.5,589.5C 851.686,587.877 851.686,588.877 879.5,592.5C 874.157,593.602 868.824,594.769 863.5,596C 868.823,596.499 874.156,596.666 879.5,596.5C 879.5,598.5 879.5,600.5 879.5,602.5C 876.302,601.964 873.635,602.631 871.5,604.5C 847.05,606.439 823.05,604.439 799.5,598.5C 798.242,596.699 796.576,595.199 794.5,594C 806.697,595.235 819.031,595.735 831.5,595.5C 831.5,594.5 831.5,593.5 831.5,592.5C 829.473,592.662 827.473,592.495 825.5,592C 833.073,591.206 832.739,590.206 824.5,589C 823.289,588.107 823.289,587.274 824.5,586.5C 831.953,588.947 839.62,590.28 847.5,590.5C 847.5,589.167 847.5,587.833 847.5,586.5C 853.026,586.821 858.36,586.488 863.5,585.5C 880.476,584.559 897.142,581.893 913.5,577.5 Z"/></g>
<g><path style="opacity:1" fill="#173d44" d="M 1116.5,669.5 C 1110.13,669.17 1103.8,669.504 1097.5,670.5C 1099.19,690.354 1100.19,710.354 1100.5,730.5C 1099.01,732.999 1099.51,734.666 1102,735.5C 1102.49,734.451 1102.33,733.451 1101.5,732.5C 1101.85,731.304 1102.35,731.304 1103,732.5C 1103.67,728.833 1103.67,725.167 1103,721.5C 1102.09,725.185 1101.42,724.852 1101,720.5C 1100.5,704.17 1100.33,687.837 1100.5,671.5C 1102.23,671.185 1103.89,671.019 1105.5,671C 1104.5,713.761 1104.17,756.594 1104.5,799.5C 1105.83,799.5 1107.17,799.5 1108.5,799.5C 1108.5,756.833 1108.5,714.167 1108.5,671.5C 1109.83,671.5 1111.17,671.5 1112.5,671.5C 1112.49,714.874 1112.49,758.041 1112.5,801C 1108.54,802.324 1104.54,803.324 1100.5,804C 1100.83,803.667 1101.17,803.333 1101.5,803C 1100.81,801.933 1100.31,800.766 1100,799.5C 1099.33,781.167 1099.33,762.833 1100,744.5C 1101,744.833 1102,745.167 1103,745.5C 1103.5,743.19 1103.66,740.857 1103.5,738.5C 1101.14,738.326 1098.81,737.993 1096.5,737.5C 1075.83,737.5 1055.17,737.5 1034.5,737.5C 1034.5,760.167 1034.5,782.833 1034.5,805.5C 1027.83,805.5 1021.17,805.5 1014.5,805.5C 1014.5,759.833 1014.5,714.167 1014.5,668.5C 1021.17,668.5 1027.83,668.5 1034.5,668.5C 1034.5,688.833 1034.5,709.167 1034.5,729.5C 1055.17,729.5 1075.83,729.5 1096.5,729.5C 1096.5,709.167 1096.5,688.833 1096.5,668.5C 1103.35,668.176 1110.02,668.509 1116.5,669.5 Z"/></g>
<g><path style="opacity:1" fill="#133b41" d="M 1116.5,669.5 C 1116.5,714.833 1116.5,760.167 1116.5,805.5C 1109.83,805.5 1103.17,805.5 1096.5,805.5C 1096.5,782.833 1096.5,760.167 1096.5,737.5C 1098.81,737.993 1101.14,738.326 1103.5,738.5C 1103.66,740.857 1103.5,743.19 1103,745.5C 1102,745.167 1101,744.833 1100,744.5C 1099.33,762.833 1099.33,781.167 1100,799.5C 1100.31,800.766 1100.81,801.933 1101.5,803C 1101.17,803.333 1100.83,803.667 1100.5,804C 1104.54,803.324 1108.54,802.324 1112.5,801C 1112.49,758.041 1112.49,714.874 1112.5,671.5C 1111.17,671.5 1109.83,671.5 1108.5,671.5C 1108.5,714.167 1108.5,756.833 1108.5,799.5C 1107.17,799.5 1105.83,799.5 1104.5,799.5C 1104.17,756.594 1104.5,713.761 1105.5,671C 1103.89,671.019 1102.23,671.185 1100.5,671.5C 1100.33,687.837 1100.5,704.17 1101,720.5C 1101.42,724.852 1102.09,725.185 1103,721.5C 1103.67,725.167 1103.67,728.833 1103,732.5C 1102.35,731.304 1101.85,731.304 1101.5,732.5C 1102.33,733.451 1102.49,734.451 1102,735.5C 1099.51,734.666 1099.01,732.999 1100.5,730.5C 1100.19,710.354 1099.19,690.354 1097.5,670.5C 1103.8,669.504 1110.13,669.17 1116.5,669.5 Z"/></g>
<g><path style="opacity:1" fill="#5a6f76" d="M 215.5,669.5 C 200.167,669.5 184.833,669.5 169.5,669.5C 169.5,714.833 169.5,760.167 169.5,805.5C 168.501,760.003 168.168,714.336 168.5,668.5C 184.342,668.17 200.009,668.504 215.5,669.5 Z"/></g>
<g><path style="opacity:1" fill="#567074" d="M 503.5,669.5 C 487.833,669.5 472.167,669.5 456.5,669.5C 456.5,714.833 456.5,760.167 456.5,805.5C 455.501,760.003 455.168,714.336 455.5,668.5C 471.675,668.17 487.675,668.504 503.5,669.5 Z"/></g>
<g><path style="opacity:1" fill="#143b42" d="M 503.5,669.5 C 527.009,670.521 546.509,679.854 562,697.5C 575.772,720.013 578.105,743.679 569,768.5C 559.938,785.56 546.105,796.727 527.5,802C 522.143,802.871 516.809,803.871 511.5,805C 493.17,805.5 474.836,805.667 456.5,805.5C 456.5,760.167 456.5,714.833 456.5,669.5C 472.167,669.5 487.833,669.5 503.5,669.5 Z"/></g>
<g><path style="opacity:1" fill="#193f46" d="M 1569.5,679.5 C 1567.89,681.075 1565.89,681.741 1563.5,681.5C 1551.55,679.46 1539.55,677.793 1527.5,676.5C 1521,676.528 1514.67,677.528 1508.5,679.5C 1507.17,696.329 1507.17,712.995 1508.5,729.5C 1523.32,730.496 1538.32,730.829 1553.5,730.5C 1553.5,732.833 1553.5,735.167 1553.5,737.5C 1538.17,737.5 1522.83,737.5 1507.5,737.5C 1507.5,757.5 1507.5,777.5 1507.5,797.5C 1528.89,795.993 1550.22,793.993 1571.5,791.5C 1571,796.152 1570.67,800.819 1570.5,805.5C 1542.83,805.5 1515.17,805.5 1487.5,805.5C 1487.5,759.833 1487.5,714.167 1487.5,668.5C 1515.17,668.5 1542.83,668.5 1570.5,668.5C 1569.76,672.119 1569.42,675.785 1569.5,679.5 Z"/></g>
<g><path style="opacity:1" fill="#133843" d="M 1488.5,669.5 C 1490.49,712.821 1491.16,756.487 1490.5,800.5C 1492.47,800.739 1494.3,800.406 1496,799.5C 1496.5,756.835 1496.67,714.168 1496.5,671.5C 1497.83,671.5 1499.17,671.5 1500.5,671.5C 1500.5,714.167 1500.5,756.833 1500.5,799.5C 1510.01,799.512 1519.68,799.345 1529.5,799C 1530.73,798.219 1532.06,797.719 1533.5,797.5C 1536.04,798.592 1538.71,799.259 1541.5,799.5C 1550.22,798.222 1558.89,797.889 1567.5,798.5C 1567.5,799.833 1567.5,801.167 1567.5,802.5C 1541.46,802.176 1515.46,802.509 1489.5,803.5C 1488.5,758.838 1488.17,714.172 1488.5,669.5 Z"/></g>
<g><path style="opacity:1" fill="#fbfcfc" d="M 490.5,676.5 C 515.296,674.815 533.796,684.815 546,706.5C 553.558,725.09 554.558,744.09 549,763.5C 540.756,784.047 525.59,795.547 503.5,798C 496.167,798.667 488.833,798.667 481.5,798C 479.567,797.749 477.734,797.249 476,796.5C 475.333,757.833 475.333,719.167 476,680.5C 480.869,678.91 485.702,677.577 490.5,676.5 Z"/></g>
<g><path style="opacity:1" fill="#778c8d" d="M 1569.5,679.5 C 1569.5,680.5 1569.5,681.5 1569.5,682.5C 1567.26,682.795 1565.26,682.461 1563.5,681.5C 1565.26,682.461 1567.26,682.795 1569.5,682.5C 1569.5,681.5 1569.5,680.5 1569.5,679.5 Z"/></g>
<g><path style="opacity:1" fill="#153b43" d="M 215.5,669.5 C 228.217,669.461 239.883,672.961 250.5,680C 260.832,690.886 262.332,703.053 255,716.5C 248.692,724.584 240.525,730.084 230.5,733C 242.878,735.361 253.378,741.195 262,750.5C 268.61,760.319 269.276,770.652 264,781.5C 260.114,788.386 254.614,793.553 247.5,797C 237.957,801.442 227.957,804.109 217.5,805C 201.503,805.5 185.503,805.667 169.5,805.5C 169.5,760.167 169.5,714.833 169.5,669.5C 184.833,669.5 200.167,669.5 215.5,669.5 Z"/></g>
<g><path style="opacity:1" fill="#acbec2" d="M 191.5,679.5 C 189.536,696.262 188.87,713.262 189.5,730.5C 196.5,730.5 203.5,730.5 210.5,730.5C 203.352,731.492 196.019,731.825 188.5,731.5C 188.5,714.167 188.5,696.833 188.5,679.5C 189.5,679.5 190.5,679.5 191.5,679.5 Z"/></g>
<g><path style="opacity:1" fill="#fcfdfd" d="M 210.5,730.5 C 203.5,730.5 196.5,730.5 189.5,730.5C 188.87,713.262 189.536,696.262 191.5,679.5C 199.938,676.763 208.605,675.929 217.5,677C 238.68,685.028 244.014,699.195 233.5,719.5C 227.859,727.152 220.193,730.819 210.5,730.5 Z"/></g>
<g><path style="opacity:1" fill="#133944" d="M 173.5,671.5 C 174.833,671.5 176.167,671.5 177.5,671.5C 176.148,674.835 175.481,678.335 175.5,682C 178.027,695.218 178.027,708.385 175.5,721.5C 176.26,723.437 177.26,725.27 178.5,727C 177.717,732.769 177.05,738.602 176.5,744.5C 177.819,762.84 177.819,781.173 176.5,799.5C 178.167,799.5 179.833,799.5 181.5,799.5C 181.913,792.122 183.58,791.789 186.5,798.5C 200.396,799.822 214.23,799.822 228,798.5C 228.483,799.448 228.649,800.448 228.5,801.5C 225.018,800.432 221.685,800.599 218.5,802C 203.036,801.932 187.703,802.765 172.5,804.5C 173.484,760.197 173.818,715.863 173.5,671.5 Z"/></g>
<g><path style="opacity:1" fill="#153b43" d="M 1204.5,666.5 C 1232.35,663.013 1254.18,672.68 1270,695.5C 1282.69,724.363 1281.02,752.363 1265,779.5C 1257.99,788.17 1249.49,795.004 1239.5,800C 1219.21,808.707 1198.54,809.707 1177.5,803C 1156.91,792.053 1145.41,774.886 1143,751.5C 1138.87,704.858 1159.37,676.524 1204.5,666.5 Z"/></g>
<g><path style="opacity:1" fill="#fcfdfd" d="M 1203.5,674.5 C 1228.92,673.776 1245.42,685.443 1253,709.5C 1260.02,736.005 1256.69,761.005 1243,784.5C 1226.34,803.125 1207.18,806.292 1185.5,794C 1179.44,789.286 1174.94,783.452 1172,776.5C 1162.42,752.931 1162.09,729.265 1171,705.5C 1178.16,691.171 1188.99,680.838 1203.5,674.5 Z"/></g>
<g><path style="opacity:1" fill="#153b43" d="M 351.5,666.5 C 379.494,662.973 401.327,672.64 417,695.5C 429.672,724.406 428.005,752.406 412,779.5C 400.852,793 386.685,801.833 369.5,806C 325.27,813.409 298.77,795.242 290,751.5C 285.827,704.895 306.327,676.561 351.5,666.5 Z"/></g>
<g><path style="opacity:1" fill="#fcfdfd" d="M 351.5,674.5 C 377.807,674.554 394.307,687.221 401,712.5C 406.527,737.474 403.194,761.141 391,783.5C 374.982,802.312 355.816,806.146 333.5,795C 323.032,786.243 316.532,775.077 314,761.5C 308.855,739.928 311.189,719.261 321,699.5C 328.671,687.942 338.837,679.608 351.5,674.5 Z"/></g>
<g><path style="opacity:1" fill="#6e8688" d="M 1508.5,729.5 C 1523.83,729.5 1539.17,729.5 1554.5,729.5C 1554.81,732.385 1554.47,735.052 1553.5,737.5C 1553.5,735.167 1553.5,732.833 1553.5,730.5C 1538.32,730.829 1523.32,730.496 1508.5,729.5 Z"/></g>
<g><path style="opacity:1" fill="#fafbfb" d="M 188.5,737.5 C 199.628,736.921 210.628,737.755 221.5,740C 243.844,749.492 249.677,764.992 239,786.5C 224.017,798.542 207.184,801.875 188.5,796.5C 188.5,776.833 188.5,757.167 188.5,737.5 Z"/></g>
<g><path style="opacity:1" fill="#0e7680" d="M 902.5,731.5 C 900.943,736.569 900.276,741.902 900.5,747.5C 900.39,754.392 901.056,761.058 902.5,767.5C 903.651,778.575 908.151,780.242 916,772.5C 919.247,768.341 922.247,764.008 925,759.5C 933.913,741.434 943.58,723.767 954,706.5C 956.797,702.701 959.964,699.201 963.5,696C 975.556,694.39 980.389,699.556 978,711.5C 968.44,754.848 956.44,797.515 942,839.5C 940.155,842.183 937.655,843.85 934.5,844.5C 932.391,844.225 931.058,843.058 930.5,841C 937.316,811.597 945.15,782.431 954,753.5C 956.325,744.888 957.992,736.221 959,727.5C 953.097,737.475 947.597,747.641 942.5,758C 936.289,768.872 928.622,778.538 919.5,787C 911.312,790.695 903.479,790.195 896,785.5C 895.334,781.949 893.501,779.282 890.5,777.5C 886.611,778.444 882.944,779.944 879.5,782C 867.467,785.532 856.967,783.032 848,774.5C 845.079,769.659 842.412,764.659 840,759.5C 837.108,748.493 834.108,737.493 831,726.5C 830.161,725.376 828.994,724.709 827.5,724.5C 824.852,724.967 822.519,726.134 820.5,728C 808.592,739.904 797.425,752.404 787,765.5C 782.5,770 778,774.5 773.5,779C 766.003,783.725 758.837,783.225 752,777.5C 750.128,774.795 749.295,771.795 749.5,768.5C 751.985,754.897 753.985,741.23 755.5,727.5C 754.448,727.351 753.448,727.517 752.5,728C 734.146,746.364 718.813,767.031 706.5,790C 699.869,790.684 695.535,787.851 693.5,781.5C 699.249,768.326 704.749,754.993 710,741.5C 713.968,725.628 717.302,709.628 720,693.5C 720.804,692.196 721.971,691.529 723.5,691.5C 727.043,692.871 730.21,694.871 733,697.5C 733.226,708.85 731.726,720.017 728.5,731C 728.833,731.5 729.167,732 729.5,732.5C 735.323,725.844 741.657,719.677 748.5,714C 756.607,712.968 763.44,715.468 769,721.5C 770.405,725.072 770.738,728.739 770,732.5C 767.56,744.2 765.06,755.867 762.5,767.5C 763.873,767.657 765.207,767.49 766.5,767C 781.917,750.226 797.583,733.559 813.5,717C 815.996,715.92 818.33,714.586 820.5,713C 828.429,712.305 835.429,714.471 841.5,719.5C 844.598,732.82 847.765,746.153 851,759.5C 853.759,765.589 857.926,770.423 863.5,774C 872.653,775.128 880.986,772.961 888.5,767.5C 888.166,740.677 894.166,715.511 906.5,692C 910.202,690.607 912.202,691.774 912.5,695.5C 910.007,702.49 907.507,709.49 905,716.5C 903.683,721.431 902.85,726.431 902.5,731.5 Z"/></g>
<g><path style="opacity:1" fill="#dcf4f7" d="M 902.5,731.5 C 902.5,743.5 902.5,755.5 902.5,767.5C 901.056,761.058 900.39,754.392 900.5,747.5C 900.276,741.902 900.943,736.569 902.5,731.5 Z"/></g>
<g><path style="opacity:1" fill="#163c43" d="M 588.5,668.5 C 596.087,668.186 603.587,668.519 611,669.5C 623.515,695.196 636.015,720.863 648.5,746.5C 660.745,720.683 672.412,694.683 683.5,668.5C 687.167,668.5 690.833,668.5 694.5,668.5C 681.098,696.307 667.932,724.307 655,752.5C 654.5,770.164 654.333,787.83 654.5,805.5C 647.833,805.5 641.167,805.5 634.5,805.5C 634.667,788.163 634.5,770.83 634,753.5C 618.351,725.354 603.185,697.021 588.5,668.5 Z"/></g>
<g><path style="opacity:1" fill="#163c43" d="M 1310.5,668.5 C 1317.09,668.189 1323.59,668.522 1330,669.5C 1345.59,703.682 1361.43,737.682 1377.5,771.5C 1393.34,737.494 1408.34,703.161 1422.5,668.5C 1429.83,668.5 1437.17,668.5 1444.5,668.5C 1446.67,714.175 1449,759.841 1451.5,805.5C 1444.5,805.5 1437.5,805.5 1430.5,805.5C 1428.92,766.474 1426.92,727.474 1424.5,688.5C 1406.38,727.203 1389.05,766.203 1372.5,805.5C 1371.17,805.5 1369.83,805.5 1368.5,805.5C 1365.65,797.45 1362.48,789.45 1359,781.5C 1345.61,751.714 1331.94,722.047 1318,692.5C 1315.58,729.809 1313.58,767.142 1312,804.5C 1309.28,805.444 1306.45,805.777 1303.5,805.5C 1305.31,759.807 1307.64,714.14 1310.5,668.5 Z"/></g>
<g><path style="opacity:1" fill="#203e45" d="M 507.5,858.5 C 516.265,859.427 517.598,862.927 511.5,869C 506.262,868.717 504.428,865.884 506,860.5C 506.717,859.956 507.217,859.289 507.5,858.5 Z"/></g>
<g><path style="opacity:1" fill="#dbe6e9" d="M 1035.5,879.5 C 1032.23,878.242 1028.89,877.075 1025.5,876C 1016.17,875.5 1006.84,875.334 997.5,875.5C 1007.57,874.822 1017.74,874.156 1028,873.5C 1032.3,873.368 1034.8,875.368 1035.5,879.5 Z"/></g>
<g><path style="opacity:1" fill="#c3d2d7" d="M 1235.5,875.5 C 1252.33,874.503 1269.33,874.17 1286.5,874.5C 1286.81,877.385 1286.47,880.052 1285.5,882.5C 1285.5,880.167 1285.5,877.833 1285.5,875.5C 1268.83,875.5 1252.17,875.5 1235.5,875.5 Z"/></g>
<g><path style="opacity:1" fill="#1b3f46" d="M 597.5,875.5 C 600.5,875.5 603.5,875.5 606.5,875.5C 606.5,896.833 606.5,918.167 606.5,939.5C 603.5,939.5 600.5,939.5 597.5,939.5C 597.5,918.167 597.5,896.833 597.5,875.5 Z"/></g>
<g><path style="opacity:1" fill="#b3bdc0" d="M 1087.5,939.5 C 1087.5,918.167 1087.5,896.833 1087.5,875.5C 1084.83,875.5 1082.17,875.5 1079.5,875.5C 1079.5,896.833 1079.5,918.167 1079.5,939.5C 1078.5,918.006 1078.17,896.34 1078.5,874.5C 1081.83,874.5 1085.17,874.5 1088.5,874.5C 1088.83,896.34 1088.5,918.006 1087.5,939.5 Z"/></g>
<g><path style="opacity:1" fill="#113a42" d="M 1087.5,939.5 C 1084.83,939.5 1082.17,939.5 1079.5,939.5C 1079.5,918.167 1079.5,896.833 1079.5,875.5C 1082.17,875.5 1084.83,875.5 1087.5,875.5C 1087.5,896.833 1087.5,918.167 1087.5,939.5 Z"/></g>
<g><path style="opacity:1" fill="#b8c3c5" d="M 1136.5,932.5 C 1135.5,913.674 1135.17,894.674 1135.5,875.5C 1132.83,875.5 1130.17,875.5 1127.5,875.5C 1127.5,896.833 1127.5,918.167 1127.5,939.5C 1126.5,918.006 1126.17,896.34 1126.5,874.5C 1129.83,874.5 1133.17,874.5 1136.5,874.5C 1136.5,893.833 1136.5,913.167 1136.5,932.5 Z"/></g>
<g><path style="opacity:1" fill="#123a42" d="M 1136.5,932.5 C 1145.5,932.5 1154.5,932.5 1163.5,932.5C 1163.5,934.833 1163.5,937.167 1163.5,939.5C 1151.5,939.5 1139.5,939.5 1127.5,939.5C 1127.5,918.167 1127.5,896.833 1127.5,875.5C 1130.17,875.5 1132.83,875.5 1135.5,875.5C 1135.17,894.674 1135.5,913.674 1136.5,932.5 Z"/></g>
<g><path style="opacity:1" fill="#153940" d="M 1194.5,875.5 C 1197.17,875.5 1199.83,875.5 1202.5,875.5C 1202.5,896.833 1202.5,918.167 1202.5,939.5C 1199.83,939.5 1197.17,939.5 1194.5,939.5C 1194.5,918.167 1194.5,896.833 1194.5,875.5 Z"/></g>
<g><path style="opacity:1" fill="#153b41" d="M 1474.5,939.5 C 1470.13,939.533 1465.8,939.2 1461.5,938.5C 1461.5,936.5 1461.5,934.5 1461.5,932.5C 1467.58,934.46 1473.08,933.46 1478,929.5C 1478.67,928.167 1479.33,926.833 1480,925.5C 1481.46,908.903 1481.96,892.237 1481.5,875.5C 1484.17,875.5 1486.83,875.5 1489.5,875.5C 1489.67,892.17 1489.5,908.837 1489,925.5C 1487.25,933.42 1482.41,938.087 1474.5,939.5 Z"/></g>
<g><path style="opacity:1" fill="#1a3e44" d="M 1235.5,875.5 C 1252.17,875.5 1268.83,875.5 1285.5,875.5C 1285.5,877.833 1285.5,880.167 1285.5,882.5C 1278.83,882.5 1272.17,882.5 1265.5,882.5C 1265.5,901.5 1265.5,920.5 1265.5,939.5C 1262.5,939.5 1259.5,939.5 1256.5,939.5C 1256.5,920.5 1256.5,901.5 1256.5,882.5C 1249.5,882.5 1242.5,882.5 1235.5,882.5C 1235.5,880.167 1235.5,877.833 1235.5,875.5 Z"/></g>
<g><path style="opacity:1" fill="#445d61" d="M 792.5,875.5 C 793.468,877.607 793.802,879.941 793.5,882.5C 783.167,882.5 772.833,882.5 762.5,882.5C 772.319,881.506 782.319,881.173 792.5,881.5C 792.5,879.5 792.5,877.5 792.5,875.5 Z"/></g>
<g><path style="opacity:1" fill="#193d44" d="M 486.5,875.5 C 502.167,875.5 517.833,875.5 533.5,875.5C 533.702,877.989 533.202,880.323 532,882.5C 520.167,899 508.333,915.5 496.5,932C 508.495,932.5 520.495,932.667 532.5,932.5C 532.5,934.833 532.5,937.167 532.5,939.5C 516.833,939.5 501.167,939.5 485.5,939.5C 485.338,937.473 485.505,935.473 486,933.5C 498.19,916.967 510.023,900.134 521.5,883C 509.838,882.5 498.171,882.333 486.5,882.5C 486.5,880.167 486.5,877.833 486.5,875.5 Z"/></g>
<g><path style="opacity:1" fill="#173c44" d="M 692.5,913.5 C 689.375,912.521 686.042,912.187 682.5,912.5C 682.5,921.5 682.5,930.5 682.5,939.5C 679.833,939.5 677.167,939.5 674.5,939.5C 674.5,918.167 674.5,896.833 674.5,875.5C 684.224,875.141 693.891,875.641 703.5,877C 708.188,877.92 711.688,880.42 714,884.5C 718.144,897.931 713.644,906.931 700.5,911.5C 707.411,920.322 714.077,929.322 720.5,938.5C 717.554,939.655 714.554,939.821 711.5,939C 705.523,930.203 699.19,921.703 692.5,913.5 Z"/></g>
<g><path style="opacity:1" fill="#f7f9f9" d="M 682.5,882.5 C 688.176,882.334 693.843,882.501 699.5,883C 708.659,887.935 709.993,894.602 703.5,903C 696.856,906.066 689.856,907.232 682.5,906.5C 682.5,898.5 682.5,890.5 682.5,882.5 Z"/></g>
<g><path style="opacity:1" fill="#193d45" d="M 359.5,874.5 C 367.518,873.628 374.684,875.628 381,880.5C 381.1,882.967 380.1,884.967 378,886.5C 371.759,881.978 364.925,880.811 357.5,883C 350.941,888.586 350.941,894.252 357.5,900C 366.817,901.908 374.984,906.075 382,912.5C 385.423,929.073 378.756,938.406 362,940.5C 354.007,940.585 347.507,937.585 342.5,931.5C 343.124,929.246 344.457,927.579 346.5,926.5C 353.5,932.678 361.5,934.178 370.5,931C 375.631,926.565 376.631,921.399 373.5,915.5C 366.395,911.852 359.062,908.686 351.5,906C 340.183,891.829 342.85,881.329 359.5,874.5 Z"/></g>
<g><path style="opacity:1" fill="#173d44" d="M 836.5,875.5 C 836.5,885.167 836.5,894.833 836.5,904.5C 848.345,904.828 860.012,904.495 871.5,903.5C 871.5,894.167 871.5,884.833 871.5,875.5C 874.5,875.5 877.5,875.5 880.5,875.5C 880.5,896.833 880.5,918.167 880.5,939.5C 877.833,939.5 875.167,939.5 872.5,939.5C 872.5,929.5 872.5,919.5 872.5,909.5C 860.655,909.172 848.988,909.505 837.5,910.5C 837.5,920.167 837.5,929.833 837.5,939.5C 834.5,939.5 831.5,939.5 828.5,939.5C 828.5,918.167 828.5,896.833 828.5,875.5C 831.167,875.5 833.833,875.5 836.5,875.5 Z"/></g>
<g><path style="opacity:1" fill="#99acb1" d="M 179.5,890.5 C 179.5,890.833 179.5,891.167 179.5,891.5C 178.833,907.5 178.167,923.5 177.5,939.5C 177.333,922.83 177.5,906.163 178,889.5C 178.383,890.056 178.883,890.389 179.5,890.5 Z"/></g>
<g><path style="opacity:1" fill="#637b80" d="M 762.5,882.5 C 762.5,889.5 762.5,896.5 762.5,903.5C 770.833,903.5 779.167,903.5 787.5,903.5C 787.802,906.059 787.468,908.393 786.5,910.5C 786.5,908.5 786.5,906.5 786.5,904.5C 778.167,904.5 769.833,904.5 761.5,904.5C 761.175,896.981 761.508,889.648 762.5,882.5 Z"/></g>
<g><path style="opacity:1" fill="#7d959a" d="M 836.5,875.5 C 837.494,884.652 837.827,893.985 837.5,903.5C 848.833,903.5 860.167,903.5 871.5,903.5C 860.012,904.495 848.345,904.828 836.5,904.5C 836.5,894.833 836.5,885.167 836.5,875.5 Z"/></g>
<g><path style="opacity:1" fill="#1a3e46" d="M 179.5,891.5 C 179.5,891.167 179.5,890.833 179.5,890.5C 178.434,888.148 177.267,885.814 176,883.5C 175.5,901.83 175.333,920.164 175.5,938.5C 174.5,938.5 173.5,938.5 172.5,938.5C 173.347,918.846 173.68,899.18 173.5,879.5C 175.833,879.5 178.167,879.5 180.5,879.5C 188.844,892.853 196.678,906.519 204,920.5C 211.899,905.704 220.066,891.037 228.5,876.5C 231.428,875.516 234.428,875.183 237.5,875.5C 237.5,896.833 237.5,918.167 237.5,939.5C 234.833,939.5 232.167,939.5 229.5,939.5C 229.667,922.83 229.5,906.163 229,889.5C 221.667,902.833 214.333,916.167 207,929.5C 205,930.833 203,930.833 201,929.5C 194.045,916.577 186.878,903.91 179.5,891.5 Z"/></g>
<g><path style="opacity:1" fill="#183d45" d="M 997.5,875.5 C 1006.84,875.334 1016.17,875.5 1025.5,876C 1028.89,877.075 1032.23,878.242 1035.5,879.5C 1041.01,885.881 1041.84,892.881 1038,900.5C 1035.43,902.869 1032.6,904.869 1029.5,906.5C 1041.86,909.892 1045.7,917.559 1041,929.5C 1038.78,933.388 1035.61,936.221 1031.5,938C 1020.21,939.356 1008.88,939.856 997.5,939.5C 997.5,918.167 997.5,896.833 997.5,875.5 Z"/></g>
<g><path style="opacity:1" fill="#768f92" d="M 1006.5,882.5 C 1006.5,889.5 1006.5,896.5 1006.5,903.5C 1011.17,903.5 1015.83,903.5 1020.5,903.5C 1015.69,904.487 1010.69,904.821 1005.5,904.5C 1005.18,896.981 1005.51,889.648 1006.5,882.5 Z"/></g>
<g><path style="opacity:1" fill="#fafcfb" d="M 1006.5,882.5 C 1012.84,882.334 1019.18,882.5 1025.5,883C 1027.17,884.167 1028.83,885.333 1030.5,886.5C 1034.02,896.474 1030.69,902.141 1020.5,903.5C 1015.83,903.5 1011.17,903.5 1006.5,903.5C 1006.5,896.5 1006.5,889.5 1006.5,882.5 Z"/></g>
<g><path style="opacity:1" fill="#163b43" d="M 792.5,875.5 C 792.5,877.5 792.5,879.5 792.5,881.5C 782.319,881.173 772.319,881.506 762.5,882.5C 761.508,889.648 761.175,896.981 761.5,904.5C 769.833,904.5 778.167,904.5 786.5,904.5C 786.5,906.5 786.5,908.5 786.5,910.5C 778.5,910.5 770.5,910.5 762.5,910.5C 762.5,917.833 762.5,925.167 762.5,932.5C 772.5,932.5 782.5,932.5 792.5,932.5C 792.5,934.833 792.5,937.167 792.5,939.5C 779.5,939.5 766.5,939.5 753.5,939.5C 753.5,918.167 753.5,896.833 753.5,875.5C 766.5,875.5 779.5,875.5 792.5,875.5 Z"/></g>
<g><path style="opacity:1" fill="#435c60" d="M 837.5,910.5 C 848.988,909.505 860.655,909.172 872.5,909.5C 872.5,919.5 872.5,929.5 872.5,939.5C 871.506,930.014 871.173,920.348 871.5,910.5C 860.167,910.5 848.833,910.5 837.5,910.5 Z"/></g>
<g><path style="opacity:1" fill="#143b3d" d="M 180.5,879.5 C 178.167,879.5 175.833,879.5 173.5,879.5C 173.68,899.18 173.347,918.846 172.5,938.5C 173.5,938.5 174.5,938.5 175.5,938.5C 175.333,920.164 175.5,901.83 176,883.5C 177.267,885.814 178.434,888.148 179.5,890.5C 178.883,890.389 178.383,890.056 178,889.5C 177.5,906.163 177.333,922.83 177.5,939.5C 175.167,939.5 172.833,939.5 170.5,939.5C 170.5,918.167 170.5,896.833 170.5,875.5C 173.518,875.335 176.518,875.502 179.5,876C 180.337,877.011 180.67,878.178 180.5,879.5 Z"/></g>
<g><path style="opacity:1" fill="#f9fbfb" d="M 1006.5,910.5 C 1013.17,910.334 1019.84,910.5 1026.5,911C 1034.34,914.197 1036.51,919.697 1033,927.5C 1031.27,929.617 1029.1,931.117 1026.5,932C 1019.84,932.5 1013.17,932.666 1006.5,932.5C 1006.5,925.167 1006.5,917.833 1006.5,910.5 Z"/></g>
<g><path style="opacity:1" fill="#1a3e46" d="M 1539.5,875.5 C 1542.83,875.5 1546.17,875.5 1549.5,875.5C 1557.01,897.015 1565.01,918.348 1573.5,939.5C 1570.75,939.813 1568.09,939.48 1565.5,938.5C 1563.29,933.209 1561.29,927.875 1559.5,922.5C 1549.17,922.5 1538.83,922.5 1528.5,922.5C 1527.1,928.03 1525.1,933.364 1522.5,938.5C 1519.91,939.48 1517.25,939.813 1514.5,939.5C 1522.45,917.993 1530.78,896.66 1539.5,875.5 Z"/></g>
<g><path style="opacity:1" fill="#53706f" d="M 1532.5,914.5 C 1539.98,915.492 1547.65,915.825 1555.5,915.5C 1547.66,916.82 1539.66,916.82 1531.5,915.5C 1531.62,914.893 1531.96,914.56 1532.5,914.5 Z"/></g>
<g><path style="opacity:1" fill="#f4f8f8" d="M 1555.5,915.5 C 1547.65,915.825 1539.98,915.492 1532.5,914.5C 1535.65,904.216 1539.48,894.216 1544,884.5C 1548.39,894.616 1552.22,904.95 1555.5,915.5 Z"/></g>
<g><path style="opacity:1" fill="#1a3d46" d="M 287.5,875.5 C 290.898,875.18 294.232,875.513 297.5,876.5C 306.421,897.264 314.755,918.264 322.5,939.5C 319.753,939.813 317.086,939.48 314.5,938.5C 311.507,933.519 309.507,928.185 308.5,922.5C 298.167,922.5 287.833,922.5 277.5,922.5C 275.579,927.761 273.746,933.094 272,938.5C 269.281,939.444 266.448,939.777 263.5,939.5C 271.317,918.045 279.317,896.711 287.5,875.5 Z"/></g>
<g><path style="opacity:1" fill="#537070" d="M 281.5,914.5 C 288.982,915.492 296.648,915.825 304.5,915.5C 296.657,916.82 288.657,916.82 280.5,915.5C 280.624,914.893 280.957,914.56 281.5,914.5 Z"/></g>
<g><path style="opacity:1" fill="#f3f6f7" d="M 304.5,915.5 C 296.648,915.825 288.982,915.492 281.5,914.5C 285.345,904.149 289.178,893.815 293,883.5C 297.132,894.09 300.965,904.757 304.5,915.5 Z"/></g>
<g><path style="opacity:1" fill="#1b3e46" d="M 429.5,875.5 C 432.898,875.18 436.232,875.513 439.5,876.5C 440.333,878.167 441.167,879.833 442,881.5C 449.39,900.495 456.89,919.495 464.5,938.5C 461.572,939.484 458.572,939.817 455.5,939.5C 454.483,933.781 452.483,928.448 449.5,923.5C 439.5,922.167 429.5,922.167 419.5,923.5C 417.64,928.928 415.306,934.095 412.5,939C 410.19,939.497 407.857,939.663 405.5,939.5C 413.498,918.178 421.498,896.845 429.5,875.5 Z"/></g>
<g><path style="opacity:1" fill="#52706e" d="M 423.5,914.5 C 430.982,915.492 438.648,915.825 446.5,915.5C 438.657,916.82 430.657,916.82 422.5,915.5C 422.624,914.893 422.957,914.56 423.5,914.5 Z"/></g>
<g><path style="opacity:1" fill="#fbfbfb" d="M 427.5,903.5 C 428.108,900.673 429.108,898.007 430.5,895.5C 432.772,894.277 433.939,892.277 434,889.5C 435.56,894.535 437.893,899.535 441,904.5C 441.311,906.556 441.811,908.556 442.5,910.5C 442.291,911.086 441.957,911.586 441.5,912C 443.044,912.29 444.377,912.956 445.5,914C 438.842,914.5 432.175,914.666 425.5,914.5C 425.87,910.767 426.537,907.101 427.5,903.5 Z"/></g>
<g><path style="opacity:1" fill="#dbe7e9" d="M 446.5,915.5 C 438.648,915.825 430.982,915.492 423.5,914.5C 424.065,910.463 425.399,906.797 427.5,903.5C 426.537,907.101 425.87,910.767 425.5,914.5C 432.175,914.666 438.842,914.5 445.5,914C 444.377,912.956 443.044,912.29 441.5,912C 441.957,911.586 442.291,911.086 442.5,910.5C 441.811,908.556 441.311,906.556 441,904.5C 437.893,899.535 435.56,894.535 434,889.5C 433.939,892.277 432.772,894.277 430.5,895.5C 431.828,891.851 433.161,888.185 434.5,884.5C 438.912,894.747 442.912,905.08 446.5,915.5 Z"/></g>
<g><path style="opacity:1" fill="#193d44" d="M 1348.5,922.5 C 1343.68,921.834 1338.68,921.501 1333.5,921.5C 1328.12,921.506 1323.12,922.172 1318.5,923.5C 1316.4,928.039 1314.57,932.706 1313,937.5C 1310.11,939.673 1306.94,940.006 1303.5,938.5C 1312.11,917.62 1320.44,896.62 1328.5,875.5C 1331.9,875.18 1335.23,875.513 1338.5,876.5C 1344.7,891.55 1350.86,906.55 1357,921.5C 1359.55,927.303 1361.38,933.303 1362.5,939.5C 1359.83,939.5 1357.17,939.5 1354.5,939.5C 1352.79,933.737 1350.79,928.07 1348.5,922.5 Z"/></g>
<g><path style="opacity:1" fill="#83969d" d="M 1348.5,922.5 C 1338.42,922.193 1328.42,922.526 1318.5,923.5C 1323.12,922.172 1328.12,921.506 1333.5,921.5C 1338.68,921.501 1343.68,921.834 1348.5,922.5 Z"/></g>
<g><path style="opacity:1" fill="#506f6d" d="M 1322.5,912.5 C 1322.5,913.5 1322.5,914.5 1322.5,915.5C 1330.17,915.5 1337.83,915.5 1345.5,915.5C 1337.77,916.181 1329.93,916.848 1322,917.5C 1321.22,915.613 1321.39,913.946 1322.5,912.5 Z"/></g>
<g><path style="opacity:1" fill="#f5f8f8" d="M 1345.5,915.5 C 1337.83,915.5 1330.17,915.5 1322.5,915.5C 1322.5,914.5 1322.5,913.5 1322.5,912.5C 1326.17,903.156 1329.84,893.823 1333.5,884.5C 1337.9,894.695 1341.9,905.029 1345.5,915.5 Z"/></g>
<g><path style="opacity:1" fill="#c5d5d7" d="M 692.5,913.5 C 689.5,913.5 686.5,913.5 683.5,913.5C 683.826,922.349 683.493,931.016 682.5,939.5C 682.5,930.5 682.5,921.5 682.5,912.5C 686.042,912.187 689.375,912.521 692.5,913.5 Z"/></g>
<g><path style="opacity:1" fill="#1c3f47" d="M 933.5,875.5 C 936.833,875.5 940.167,875.5 943.5,875.5C 950.426,894.692 957.926,913.692 966,932.5C 966.977,934.74 967.477,937.073 967.5,939.5C 964.753,939.813 962.086,939.48 959.5,938.5C 957.293,933.209 955.293,927.875 953.5,922.5C 943.167,922.5 932.833,922.5 922.5,922.5C 921.584,927.669 920.084,932.669 918,937.5C 915.108,939.673 911.941,940.006 908.5,938.5C 917.037,917.551 925.37,896.551 933.5,875.5 Z"/></g>
<g><path style="opacity:1" fill="#557171" d="M 949.5,913.5 C 950.404,914.209 950.737,915.209 950.5,916.5C 942.316,916.826 934.316,916.492 926.5,915.5C 934.573,916.132 942.24,915.465 949.5,913.5 Z"/></g>
<g><path style="opacity:1" fill="#f3f7f7" d="M 949.5,913.5 C 942.24,915.465 934.573,916.132 926.5,915.5C 929.721,905.301 933.554,895.301 938,885.5C 942.124,894.703 945.957,904.036 949.5,913.5 Z"/></g>
<g><path style="opacity:1" fill="#1a3e45" d="M 1410.5,874.5 C 1419.05,873.977 1427.05,875.81 1434.5,880C 1437.26,883.252 1436.59,885.752 1432.5,887.5C 1424.85,882.741 1416.52,881.241 1407.5,883C 1395.44,889.122 1390.61,898.955 1393,912.5C 1396.2,929.691 1406.37,936.191 1423.5,932C 1426.66,930.183 1429.82,928.35 1433,926.5C 1434.85,927.169 1436.01,928.503 1436.5,930.5C 1433.46,935.245 1429.12,938.078 1423.5,939C 1398.46,943.133 1385.13,932.467 1383.5,907C 1384.44,889.241 1393.44,878.408 1410.5,874.5 Z"/></g>
<g><path style="opacity:1" fill="#556c71" d="M 1461.5,932.5 C 1461.5,934.5 1461.5,936.5 1461.5,938.5C 1465.8,939.2 1470.13,939.533 1474.5,939.5C 1469.98,940.678 1465.31,940.678 1460.5,939.5C 1460.2,936.941 1460.53,934.607 1461.5,932.5 Z"/></g>
</svg>
