<svg id="SvgjsSvg1001" width="288" height="288" xmlns="http://www.w3.org/2000/svg" version="1.1" xmlns:xlink="http://www.w3.org/1999/xlink" xmlns:svgjs="http://svgjs.com/svgjs"><defs id="SvgjsDefs1002"></defs><g id="SvgjsG1008" transform="matrix(1,0,0,1,0,0)"><svg xmlns="http://www.w3.org/2000/svg" width="288" height="288" version="1.0" viewBox="0 0 765 765"><g transform="matrix(.1 0 0 -.1 0 765)" fill="#0c838d" class="color000 svgShape"><path d="M3087 7383 l-268 -268 -117 -38 c-400 -132 -877 -419 -1205 -726-336 -314 -580 -639 -780 -1041 -187 -375 -292 -702 -351 -1100 -51 -340 -47
-789 9 -1115 19 -111 61 -300 82 -369 88 -292 197 -567 218 -548 5 4 5 1 1 -6
-9 -16 60 -126 74 -117 5 3 12 0 16 -6 4 -8 3 -9 -4 -5 -7 4 -12 3 -12 -3 0
-6 10 -16 22 -22 33 -18 48 11 48 92 0 94 -21 204 -99 524 -111 449 -137 665
-128 1030 6 257 25 425 72 661 76 375 196 704 366 1002 271 477 622 854 1064
1144 121 79 225 136 225 123 0 -3 -28 -38 -63 -78 -112 -130 -169 -206 -161
-218 4 -7 3 -9 -4 -5 -13 8 -120 -144 -204 -288 -115 -198 -154 -341 -145
-526 8 -179 108 -640 239 -1110 22 -80 48 -173 57 -208 9 -36 20 -60 25 -55 5
4 6 3 2 -4 -4 -7 7 -61 25 -120 17 -60 33 -117 36 -129 4 -16 -7 -28 -51 -57
-31 -21 -56 -42 -56 -48 0 -5 -4 -8 -8 -5 -10 6 -95 -68 -87 -76 3 -3 -3 -11
-12 -19 -16 -13 -17 -12 -4 4 23 29 -2 18 -41 -18 -36 -33 -50 -54 -28 -40 6
3 7 -1 4 -9 -3 -9 -10 -16 -16 -16 -5 0 -6 5 -3 10 3 6 2 10 -2 10 -8 0 -81
-73 -177 -176 -31 -35 -36 -45 -27 -61 7 -15 7 -20 -4 -20 -8 0 -11 7 -7 16 4
13 1 12 -16 -3 -24 -21 -29 -31 -9 -20 6 3 0 -4 -14 -17 -27 -24 -124 -164
-136 -196 -5 -12 -3 -14 7 -8 9 5 11 4 6 -4 -4 -6 -11 -9 -16 -6 -11 7 -92
-154 -84 -167 4 -6 3 -8 -3 -5 -13 8 -67 -128 -57 -144 4 -7 3 -9 -3 -6 -13 8
-27 -39 -17 -55 5 -7 2 -8 -6 -3 -10 6 -12 1 -7 -26 5 -21 4 -29 -2 -20 -6 9
-13 -8 -24 -55 -8 -38 -15 -76 -15 -84 -1 -8 -6 -35 -12 -59 -6 -24 -11 -60
-11 -80 0 -20 -2 -80 -5 -135 -6 -104 11 -323 27 -342 5 -6 7 -20 3 -30 -5
-18 -5 -18 6 0 9 13 9 24 1 42 -6 15 -7 24 -1 24 6 0 10 -1 10 -3 0 -1 4 -17
9 -35 6 -18 6 -30 1 -27 -5 3 -11 -8 -15 -24 -11 -49 87 -355 120 -373 8 -5
15 -14 15 -21 0 -7 -4 -6 -10 3 -5 8 -10 10 -10 4 0 -6 9 -23 20 -36 10 -14
16 -29 12 -33 -4 -5 1 -5 11 -2 14 5 20 2 24 -13 3 -11 9 -17 14 -14 5 3 9 1
9 -5 0 -23 -20 -20 -26 4 -3 13 -10 23 -15 20 -8 -5 38 -102 65 -138 17 -22
50 -12 43 14 -3 11 -1 17 4 13 14 -8 11 -31 -7 -49 -17 -16 -13 -45 6 -45 7 0
9 8 5 19 -3 11 -1 22 5 26 6 4 10 -4 10 -19 0 -14 -5 -28 -10 -31 -6 -4 3 -25
21 -51 17 -25 35 -42 41 -38 7 4 8 2 4 -5 -11 -17 11 -40 33 -34 10 3 22 0 25
-6 4 -7 1 -8 -8 -5 -24 9 -19 -11 7 -30 12 -9 15 -14 7 -10 -12 6 -13 4 -3 -6
9 -10 16 -10 25 -2 11 9 14 6 15 -11 2 -15 0 -18 -6 -8 -6 9 -11 10 -15 3 -8
-13 41 -48 52 -38 3 4 0 12 -8 17 -12 9 -12 10 3 5 10 -3 21 -6 23 -6 2 0 4
-7 4 -15 0 -8 7 -15 15 -15 8 0 15 -6 15 -14 0 -8 6 -16 13 -19 6 -2 9 -8 5
-12 -5 -5 -18 4 -31 18 -12 15 -29 27 -36 27 -8 0 19 -33 60 -72 114 -111 138
-130 150 -122 7 4 9 3 6 -3 -9 -15 17 -35 35 -28 9 4 22 0 29 -8 8 -7 20 -12
28 -9 9 3 11 0 6 -8 -6 -9 -4 -12 7 -8 9 4 15 0 15 -8 0 -20 -11 -17 -47 12
-17 15 -33 24 -36 21 -9 -9 90 -77 103 -72 7 2 12 -1 10 -8 -1 -7 6 -11 16 -9
10 2 16 -3 15 -10 -3 -13 7 -14 50 -4 14 3 20 1 16 -6 -4 -5 0 -15 7 -20 11
-8 10 -9 -3 -4 -41 13 -13 -13 55 -52 93 -53 166 -84 179 -75 6 3 8 2 5 -4 -7
-10 205 -96 369 -149 672 -219 1453 -216 2119 8 469 157 902 411 1258 738 33
30 67 60 76 66 9 7 69 70 133 140 531 583 827 1220 935 2014 25 189 25 717 -1
900 -49 351 -135 672 -246 927 -12 27 -25 57 -29 68 -18 44 -153 311 -166 329
-14 18 -15 18 -34 -5 l-20 -24 -1 28 c0 19 4 26 12 21 8 -5 9 -2 4 11 -6 16
-4 16 11 4 10 -8 4 8 -15 41 -17 30 -36 54 -41 53 -6 -2 -8 3 -6 10 3 6 -13
36 -35 65 -22 29 -40 55 -40 58 0 10 -92 134 -99 134 -4 0 -13 11 -19 25 -47
102 -558 616 -598 601 -8 -3 -11 0 -7 10 4 10 -1 13 -17 12 -13 -2 -24 3 -26
10 -1 7 0 8 3 2 2 -5 9 -10 15 -10 6 0 3 9 -7 20 -20 22 -36 26 -33 8 4 -16
-49 -20 -59 -5 -11 16 -11 67 -1 61 5 -3 5 -10 2 -16 -4 -7 -2 -8 5 -4 20 13
-8 38 -35 32 -13 -4 -26 -2 -29 4 -4 6 1 7 11 3 12 -4 15 -2 12 8 -3 8 -12 14
-21 14 -8 0 -19 4 -24 9 -4 5 -3 6 5 2 6 -4 12 -5 12 -1 0 3 -10 10 -22 16
-21 8 -76 45 -103 67 -5 4 -26 17 -45 28 -19 10 -46 27 -59 36 -13 10 -27 15
-32 12 -5 -3 -9 -1 -9 4 0 4 -17 16 -37 25 -30 14 -34 14 -19 2 23 -17 14 -20
-15 -4 -11 5 -17 14 -14 19 7 12 -143 83 -157 74 -6 -4 -8 -3 -5 3 4 6 -23 24
-63 42 -76 34 -84 36 -75 21 3 -5 1 -10 -4 -10 -6 0 -11 6 -11 14 0 16 -216
100 -237 92 -8 -3 -12 -2 -9 3 6 9 -26 21 -54 21 -13 0 -13 -1 0 -11 10 -7 11
-9 2 -7 -8 2 -13 7 -12 12 2 10 -51 66 -62 66 -5 0 -6 -4 -3 -10 3 -5 2 -10
-3 -10 -6 0 -12 7 -16 15 -3 8 -2 14 2 14 4 -1 10 -1 13 0 4 0 -96 105 -221
231 l-229 230 -198 0 -198 0 161 -161 c88 -88 169 -162 180 -163 10 -2 18 -9
16 -17 -3 -12 455 -479 471 -479 5 0 6 4 3 8 -3 5 1 9 9 9 11 0 12 -3 3 -14
-9 -12 11 -36 105 -129 64 -63 113 -109 108 -103 -5 6 -7 18 -4 25 3 8 -1 14
-10 14 -22 0 -32 19 -18 33 9 9 10 7 5 -7 -6 -16 -4 -18 9 -13 10 4 18 1 19
-6 1 -13 5 -29 8 -37 1 -3 3 -14 5 -24 2 -11 13 -29 25 -40 21 -21 21 -21 37
-1 11 14 14 15 10 4 -3 -9 0 -22 6 -29 9 -10 9 -11 0 -6 -28 16 -9 -13 55 -81
50 -54 71 -70 81 -63 20 12 -4 41 -27 33 -14 -5 -13 -2 3 17 l20 23 -25 -7
c-22 -6 -23 -6 -6 5 16 10 22 9 32 -5 9 -13 13 -14 16 -4 3 7 4 -4 4 -25 -1
-21 -8 -42 -15 -46 -10 -7 5 -31 60 -95 40 -47 76 -86 81 -86 4 0 7 -3 6 -7
-2 -5 12 -29 31 -55 29 -40 37 -46 49 -35 13 10 14 9 5 -7 -8 -15 -2 -32 37
-90 26 -39 55 -86 64 -104 9 -18 21 -30 27 -26 6 4 5 10 -4 17 -8 7 -17 20
-21 30 -5 15 -1 18 17 15 13 -2 22 -10 21 -19 -1 -11 6 -15 22 -13 23 2 23 1
9 -26 -17 -33 -19 -44 -6 -36 5 4 7 -3 4 -14 -3 -11 -9 -18 -13 -15 -9 6 -6
40 5 68 10 24 -7 22 -23 -3 -10 -17 -10 -27 4 -55 9 -19 20 -35 25 -35 5 0 9
-8 9 -17 0 -10 9 -45 20 -77 34 -100 24 -273 -29 -521 -32 -152 -32 -151 -23
-131 8 17 9 18 15 3 3 -9 1 -20 -6 -24 -20 -13 -63 -128 -81 -219 -3 -11 -12
-36 -20 -56 -9 -21 -17 -41 -17 -45 -2 -11 -19 -54 -26 -66 -3 -6 -1 -7 5 -3
15 9 16 -18 1 -45 -5 -11 -15 -16 -21 -13 -7 5 -9 1 -5 -9 3 -10 3 -17 -1 -17
-8 0 -47 -96 -47 -115 0 -5 -3 -12 -6 -15 -13 -12 -39 -92 -33 -102 4 -6 2 -8
-3 -5 -13 8 -27 -39 -17 -55 4 -6 3 -8 -3 -5 -10 7 -58 -92 -49 -101 3 -2 -1
-10 -8 -17 -7 -7 -28 -52 -47 -100 l-33 -87 -19 24 c-11 12 -24 22 -28 21 -5
-2 -8 3 -6 10 1 6 -4 11 -10 10 -7 -2 -12 2 -10 9 1 6 -5 13 -14 15 -19 4 -21
-26 -4 -40 6 -5 4 -7 -5 -5 -9 3 -15 17 -15 35 0 24 -9 38 -39 62 -21 17 -42
31 -46 31 -4 0 -20 11 -36 25 -16 14 -34 23 -41 20 -7 -2 -15 1 -19 7 -5 7 -2
8 7 4 8 -4 6 -1 -4 8 -11 8 -26 12 -35 9 -9 -4 -13 -2 -9 4 3 5 -12 20 -35 33
-23 13 -38 18 -34 11 5 -7 -3 -11 -25 -11 -27 0 -30 2 -19 15 15 18 15 17 -26
38 -27 14 -31 14 -31 1 0 -9 6 -13 15 -9 12 5 13 3 2 -10 -12 -14 -10 -16 16
-10 25 5 26 4 6 -4 -29 -14 -51 -4 -47 20 5 23 -22 52 -42 45 -8 -3 -12 -2 -9
2 3 5 -11 16 -31 26 -28 13 -38 14 -47 5 -8 -9 -7 -10 7 -6 24 9 21 0 -4 -14
-17 -9 -20 -8 -14 2 6 8 4 11 -7 7 -8 -4 -15 -1 -15 7 0 7 6 11 14 8 7 -3 13
0 13 6 0 6 -4 11 -10 11 -19 0 -25 2 -50 19 -24 17 -119 65 -130 66 -3 0 -15
6 -27 13 -12 6 -28 9 -36 6 -8 -3 -18 -1 -22 5 -4 7 1 9 12 5 10 -3 5 3 -11
14 -16 11 -36 18 -44 14 -11 -4 -13 -2 -7 8 5 9 4 11 -3 6 -7 -4 -12 -3 -12 3
0 5 -18 21 -41 34 l-41 25 45 31 c44 30 48 38 32 74 -4 10 -4 21 -1 24 4 4 9
-3 13 -15 5 -19 8 -20 22 -10 10 8 10 5 -3 -10 -11 -12 -15 -22 -9 -22 15 0
64 56 56 64 -4 4 -1 4 8 1 9 -3 30 11 57 40 23 25 42 42 42 39 0 -4 9 1 20 11
12 10 18 25 15 32 -2 8 -1 12 3 9 12 -7 84 73 76 85 -3 5 -2 8 3 7 4 -2 8 0 8
4 0 4 10 15 22 23 14 10 20 21 16 32 -6 14 -8 14 -21 -3 -14 -18 -14 -18 -7 1
4 11 10 31 13 45 l6 25 6 -24 c3 -14 10 -26 16 -28 11 -4 47 53 40 65 -2 4 0
14 6 22 8 12 8 11 3 -5 -12 -39 12 1 43 71 56 125 74 211 78 389 3 102 1 153
-5 140 -7 -14 -8 -4 -4 32 3 28 2 60 -2 70 -5 10 -7 21 -7 26 9 38 -83 321
-100 310 -7 -3 -8 -1 -4 6 7 11 -43 108 -70 136 -8 8 -14 17 -13 21 3 16 -104
121 -171 168 -181 126 -379 175 -595 147 -156 -21 -281 -72 -400 -164 -115
-88 -271 -294 -249 -329 4 -6 3 -8 -3 -5 -18 11 -69 -124 -99 -258 -20 -97
-23 -304 -5 -390 19 -92 43 -165 53 -159 4 3 5 -3 1 -12 -4 -12 -3 -15 5 -10
8 4 10 2 6 -7 -8 -21 84 -200 98 -191 7 5 8 3 4 -5 -5 -7 8 -35 31 -68 21 -31
43 -63 48 -72 33 -52 148 -180 157 -175 6 4 8 3 5 -3 -7 -10 39 -60 51 -55 4
1 7 -3 7 -10 0 -6 27 -35 60 -63 66 -57 74 -70 43 -72 -12 -1 -24 -6 -27 -11
-3 -4 -20 -14 -38 -21 -23 -9 -30 -17 -25 -29 5 -15 3 -15 -10 -4 -13 10 -22
11 -37 2 -26 -13 -27 -30 -3 -31 11 0 12 -2 4 -6 -7 -3 -18 0 -25 5 -12 10
-21 6 -184 -77 -35 -17 -66 -32 -70 -33 -5 0 -37 -15 -73 -33 -36 -18 -124
-61 -197 -95 -73 -35 -129 -68 -126 -73 3 -6 1 -7 -5 -3 -12 7 -63 -13 -74
-29 -4 -5 -8 -7 -8 -2 0 4 -18 -2 -40 -13 -22 -11 -39 -24 -39 -28 3 -20 -2
-32 -12 -26 -8 4 -7 9 2 15 25 16 -1 9 -34 -8 -18 -9 -34 -18 -37 -18 -3 -1
-25 -11 -50 -24 -25 -13 -47 -23 -49 -22 -2 2 -8 -3 -13 -11 -6 -9 -8 -7 -3 8
3 12 -6 62 -21 110 -14 49 -30 103 -34 119 -4 17 -31 115 -60 220 -132 487
-216 881 -227 1061 -5 87 -3 111 16 175 47 156 156 334 338 556 52 63 91 119
87 125 -4 6 -3 8 3 5 6 -4 43 30 84 76 40 45 327 337 638 650 l565 567 -200 0
-199 0 -268 -267z m2257 -778 c11 -8 28 -15 38 -15 10 0 18 -6 18 -12 0 -10 3
-9 9 1 7 11 13 11 32 -3 13 -9 19 -16 13 -16 -5 0 -15 5 -22 12 -9 9 -12 9
-12 0 0 -12 59 -48 73 -44 4 1 7 -2 7 -7 0 -16 48 -42 56 -29 4 6 3 8 -3 5 -5
-3 -10 0 -10 7 0 19 40 12 43 -7 1 -9 -3 -20 -8 -24 -7 -4 -8 -1 -3 7 5 9 4
11 -4 6 -16 -10 -3 -29 16 -22 8 3 12 2 9 -3 -3 -5 18 -24 47 -42 64 -41 202
-146 234 -177 13 -13 28 -20 33 -17 6 4 9 1 8 -7 -2 -7 3 -12 10 -10 8 1 11
-2 8 -7 -7 -11 129 -122 139 -113 5 4 5 2 1 -5 -4 -7 8 -28 29 -50 19 -21 33
-31 29 -22 -3 10 -1 20 4 23 12 7 25 -22 16 -35 -3 -6 0 -16 6 -24 14 -17 35
-21 25 -5 -3 6 -1 10 5 10 8 0 10 -9 6 -23 -4 -18 2 -31 23 -51 16 -16 33 -28
38 -28 4 1 7 -5 5 -13 -3 -15 37 -47 48 -40 4 3 13 -2 20 -10 7 -8 16 -13 20
-10 4 3 13 -2 20 -11 10 -11 10 -18 2 -26 -8 -8 -13 -7 -18 5 -3 9 -11 14 -17
10 -6 -4 -7 -1 -2 7 5 9 4 11 -4 6 -11 -7 -6 -16 44 -81 14 -17 17 -18 26 -5
8 12 9 11 5 -5 -3 -12 3 -31 14 -45 11 -14 20 -19 20 -11 0 10 3 11 13 2 8 -6
16 -9 18 -6 3 2 5 -5 6 -15 1 -11 -3 -23 -9 -26 -6 -4 -6 -9 -1 -13 5 -3 19
-23 32 -44 19 -30 26 -35 37 -26 15 12 20 -1 5 -16 -9 -10 112 -218 122 -209
3 3 4 -1 4 -8 -3 -22 76 -178 86 -171 6 3 7 1 4 -5 -4 -5 -4 -18 -1 -27 6 -13
9 -14 16 -3 7 9 8 7 3 -8 -6 -24 18 -78 30 -66 5 4 5 2 1 -5 -3 -6 12 -59 34
-117 75 -199 131 -409 169 -636 64 -387 59 -811 -15 -1195 -188 -975 -810
-1822 -1677 -2285 l-96 -51 -93 135 c-154 225 -257 422 -288 555 -25 106 10
294 96 519 24 63 41 119 37 125 -3 5 -2 8 3 4 15 -9 233 472 292 643 46 135
86 296 76 311 -4 6 -2 14 4 18 17 10 35 234 27 341 -7 105 -30 227 -45 245 -7
8 0 33 20 78 16 36 28 72 27 79 -2 7 -2 9 1 4 8 -15 102 218 96 239 -4 14 -2
16 4 7 6 -9 13 -1 25 30 11 28 14 45 7 52 -15 15 -12 30 4 17 11 -10 17 -4 31
33 10 25 17 49 17 53 0 4 4 13 10 20 5 7 6 18 2 24 -4 7 -3 9 3 6 12 -7 35 61
26 77 -3 6 -3 8 2 4 14 -13 46 71 35 90 -7 13 -9 14 -10 3 0 -8 -2 -12 -5 -9
-3 3 2 18 10 34 12 22 16 24 14 9 -3 -39 2 -39 16 -1 8 22 12 53 10 70 -4 28
-4 28 3 6 8 -24 9 -24 17 10 4 19 13 46 20 60 27 52 103 331 89 326 -8 -3 -11
0 -7 9 3 8 9 13 13 10 11 -7 20 35 14 62 -4 13 -2 23 4 23 15 0 22 40 9 60 -8
14 -8 24 1 42 12 22 12 21 9 -10 -2 -18 -1 -29 3 -25 9 10 36 144 51 251 13
97 7 304 -10 310 -6 2 -9 8 -5 13 8 13 -6 50 -16 44 -14 -9 -23 16 -11 28 9 9
11 7 5 -8 -5 -15 -4 -17 5 -9 8 8 8 18 -1 44 -10 30 -12 32 -20 14 -6 -14 -7
-13 -3 8 3 18 -2 41 -16 65 -20 36 -21 37 -15 8 l6 -30 -16 25 -15 25 5 -34
c8 -44 -3 -34 -14 13 -6 28 -5 36 5 34 8 -2 14 0 15 5 2 16 -56 125 -73 138
-5 3 -8 9 -7 13 2 10 -65 116 -95 151 -15 17 -23 24 -19 16 5 -9 3 -12 -4 -7
-7 4 -12 15 -12 25 0 10 -25 51 -56 92 -54 73 -85 109 -69 80 5 -9 3 -12 -6
-9 -8 3 -14 14 -14 25 -1 22 -49 85 -59 76 -3 -4 -6 1 -6 10 0 9 -9 21 -19 27
-26 13 -34 13 -25 -2 5 -8 2 -9 -11 -5 -9 4 -25 2 -34 -5 -14 -11 -14 -11 -4
3 7 9 10 19 6 23 -4 4 1 4 12 0 19 -7 19 -7 3 13 -27 30 -21 40 8 12 18 -17
23 -19 18 -6 -3 9 -10 17 -15 17 -5 0 -9 5 -9 10 0 14 11 12 34 -5z m-1401
-286 c43 -6 99 -24 139 -44 37 -18 65 -28 61 -21 -3 6 11 -8 31 -32 21 -23 42
-40 47 -36 5 3 6 10 3 16 -4 7 -2 8 5 4 9 -6 9 -11 1 -21 -8 -10 -6 -17 8 -27
25 -18 84 -112 107 -170 9 -26 20 -46 24 -44 3 2 7 -8 7 -22 1 -15 11 -70 23
-122 31 -136 28 -363 -5 -458 -22 -64 -22 -98 0 -85 6 3 5 0 -2 -8 -10 -11
-14 -11 -21 -1 -5 8 -13 1 -24 -24 -10 -19 -14 -40 -11 -46 4 -7 2 -8 -4 -4
-7 4 -26 -15 -47 -49 -36 -56 -131 -157 -215 -228 -29 -25 -33 -31 -12 -17
l32 21 -3 -23 c-3 -19 -10 -23 -38 -23 -43 0 -58 -10 -52 -34 3 -10 -1 -22 -8
-26 -8 -5 -10 -4 -5 3 4 7 2 12 -4 12 -6 0 -8 6 -5 13 4 6 -1 3 -9 -7 -9 -11
-16 -17 -16 -13 0 3 -25 -11 -57 -33 -31 -22 -62 -40 -69 -40 -18 0 -161 109
-222 170 -40 40 -55 50 -66 41 -9 -8 -13 -7 -13 4 0 8 4 12 9 9 17 -11 6 12
-21 44 -26 30 -30 32 -44 18 -13 -14 -16 -14 -21 0 -3 8 -2 13 2 10 4 -2 14
-1 22 4 11 7 7 15 -16 42 -17 19 -40 51 -53 71 -12 21 -27 34 -33 31 -7 -5 -8
-2 -4 5 5 7 1 20 -7 29 -18 22 -80 169 -103 247 -41 134 -12 385 61 538 27 58
99 161 128 186 9 7 14 18 10 24 -3 5 -2 7 4 4 13 -8 95 47 86 58 -5 4 -2 5 5
1 7 -4 18 -4 25 2 21 16 100 44 147 52 67 11 143 11 223 -1z m-85 -1934 c16
-12 26 -13 42 -5 13 7 20 7 20 0 0 -5 -7 -10 -16 -10 -8 0 -12 -5 -9 -11 4 -6
14 -8 22 -5 8 3 12 2 9 -2 -7 -12 102 -74 116 -66 7 4 8 3 4 -4 -3 -6 3 -16
14 -22 11 -6 20 -8 20 -4 0 4 8 0 18 -9 34 -31 246 -125 275 -122 15 2 25 -1
21 -6 -5 -8 20 -13 68 -13 9 0 15 -3 12 -8 -3 -4 2 -8 10 -8 9 0 16 -5 16 -11
0 -6 -7 -9 -15 -6 -8 4 -17 3 -19 -2 -3 -4 20 -20 50 -34 31 -15 52 -22 48
-16 -4 7 -2 10 5 8 7 -3 12 -9 12 -14 0 -16 79 -52 110 -50 15 1 26 -2 23 -7
-4 -5 -13 -7 -23 -4 -12 5 -11 2 3 -9 11 -8 24 -15 28 -15 10 0 60 -33 97 -65
15 -12 21 -14 16 -5 -5 8 -5 12 0 8 4 -4 15 -2 24 5 14 11 14 10 2 -6 -13 -16
-11 -22 20 -52 35 -35 59 -44 59 -22 0 6 5 4 11 -6 5 -9 7 -22 4 -27 -8 -13
19 -52 30 -42 5 4 5 2 2 -4 -4 -6 7 -29 22 -50 16 -22 42 -77 58 -124 26 -80
28 -95 28 -250 0 -124 -5 -186 -19 -250 -10 -47 -19 -92 -20 -100 -1 -9 -5
-20 -8 -25 -11 -20 -73 -211 -72 -222 1 -7 -2 -13 -6 -13 -12 0 -31 -60 -23
-74 3 -6 3 -8 -2 -4 -4 4 -25 -29 -45 -75 -20 -45 -49 -109 -65 -142 -132
-287 -137 -299 -124 -320 11 -18 10 -18 -3 -7 -13 11 -20 1 -46 -75 -81 -228
-96 -303 -96 -473 -1 -101 4 -153 18 -205 39 -147 144 -353 288 -567 68 -102
88 -138 74 -138 -1 0 -34 -11 -72 -25 -77 -28 -278 -84 -394 -109 -178 -39
-348 -57 -571 -63 -359 -9 -605 22 -1024 131 -5 2 -21 8 -35 13 -14 6 -40 14
-58 18 -27 6 -31 9 -19 18 25 21 89 136 81 148 -4 7 -3 10 2 6 5 -3 38 46 73
109 56 100 62 116 50 132 -12 15 -12 16 2 4 14 -11 19 -6 39 40 13 29 23 61
22 71 0 9 3 17 8 17 13 0 49 127 60 215 6 44 8 105 4 135 -8 74 -33 221 -41
240 -9 19 -10 29 -12 65 -1 24 -3 27 -12 15 -8 -12 -9 -11 -5 6 5 17 -46 221
-61 248 -3 4 -9 2 -14 -5 -5 -8 -6 1 -3 23 5 31 2 40 -20 59 -14 12 -25 32
-25 43 1 17 2 18 6 3 2 -9 9 -17 15 -17 6 0 7 8 3 18 -4 9 -14 38 -22 64 -11
32 -20 45 -29 41 -8 -3 -14 1 -14 10 0 8 5 17 10 19 7 2 7 15 -1 38 -14 40
-25 50 -48 43 -14 -4 -14 -3 -1 6 13 10 13 13 -4 26 -19 14 -33 91 -15 79 5
-3 9 -12 9 -20 0 -8 4 -14 9 -14 5 0 4 17 -1 40 -6 22 -16 40 -24 40 -8 0 -14
5 -14 11 0 5 5 7 10 4 6 -3 10 -4 10 -2 0 5 -38 117 -47 137 -3 8 -5 21 -4 27
1 7 -4 10 -13 7 -18 -7 -36 25 -35 63 1 22 3 19 11 -16 7 -31 13 -40 20 -33 8
8 8 15 0 24 -5 7 -10 15 -10 18 0 23 -16 80 -23 80 -5 0 -5 7 -2 17 5 12 3 14
-7 8 -9 -5 -11 -4 -6 4 4 6 0 34 -9 62 -14 41 -19 48 -31 38 -15 -12 -16 -10
-19 31 -1 14 -5 39 -9 55 -3 17 1 12 10 -13 23 -62 29 -44 8 25 -17 57 -34 89
-34 65 0 -7 -4 -12 -10 -12 -5 0 -10 9 -10 21 0 11 4 18 9 15 12 -8 8 19 -13
97 -13 47 -22 64 -28 55 -6 -9 -7 -6 -3 8 3 12 0 34 -6 50 -6 16 -13 40 -15
53 -2 13 -7 27 -11 30 -4 3 -8 11 -8 16 0 28 -49 184 -56 179 -5 -3 -6 2 -3
10 3 8 1 23 -5 34 -8 16 -6 21 15 31 23 10 24 14 13 29 -11 14 -11 15 1 5 18
-16 34 -17 24 -1 -4 7 -3 8 4 4 16 -10 134 52 126 66 -4 6 -3 8 4 4 11 -7 163
64 157 73 -2 3 8 7 22 8 14 0 33 9 42 18 9 10 10 15 3 11 -7 -4 -19 -2 -27 4
-8 7 -23 9 -32 6 -15 -6 -16 -5 -5 6 10 10 16 10 33 0 16 -10 24 -11 35 -1 8
7 14 8 12 3 -6 -18 9 -19 50 0 28 13 39 23 33 30 -6 7 -1 11 16 13 20 1 23 -1
12 -9 -21 -14 -2 -7 79 31 39 19 72 38 72 42 0 5 7 5 17 2 12 -5 14 -3 8 7 -6
10 -4 12 8 7 10 -3 17 -2 17 3 0 16 -19 21 -41 9 -17 -9 -20 -8 -14 2 6 9 3
11 -9 6 -9 -4 -14 -3 -11 2 3 5 -3 12 -12 14 -10 2 -7 2 7 0 14 -2 42 -5 62
-7 21 -1 41 -5 44 -9 4 -3 16 -1 28 5 11 7 24 12 27 13 3 0 103 49 222 108
130 66 214 113 210 120 -3 6 -1 7 6 3 6 -4 24 1 39 11 54 37 69 39 100 18z
m-1633 -843 c6 -4 10 -17 9 -29 -1 -13 2 -23 7 -23 5 0 5 -7 2 -17 -5 -12 -3
-14 7 -8 10 6 12 4 7 -7 -3 -9 1 -38 9 -65 8 -26 19 -65 25 -86 5 -21 14 -35
19 -32 6 3 7 0 5 -7 -3 -8 6 -49 20 -93 14 -44 25 -85 25 -92 0 -7 5 -13 11
-13 5 0 7 -4 4 -10 -7 -12 25 -120 36 -120 4 0 7 -8 6 -19 0 -10 5 -37 13 -60
9 -29 16 -38 22 -29 6 9 7 6 3 -9 -7 -24 4 -77 14 -68 6 7 7 12 10 41 0 8 6
12 11 9 15 -9 12 -51 -4 -67 -12 -12 -10 -25 10 -84 23 -69 27 -72 26 -24 l-1
25 8 -25 c4 -14 4 -33 -1 -43 -12 -23 12 -93 25 -74 5 7 6 4 2 -10 -6 -22 11
-100 27 -118 4 -5 8 -18 8 -30 0 -17 2 -18 11 -5 8 11 9 8 4 -13 -4 -19 -2
-26 5 -22 5 3 10 13 10 22 0 9 3 13 6 10 4 -4 2 -19 -5 -34 -10 -25 -4 -50 50
-208 33 -99 69 -214 80 -255 28 -108 28 -107 40 -90 8 11 9 9 4 -9 -8 -27 12
-139 29 -160 9 -11 12 -9 18 10 4 14 5 7 1 -16 -6 -43 -5 -231 2 -280 4 -23 3
-25 -3 -10 -8 16 -10 13 -16 -20 -4 -22 -14 -52 -22 -67 -8 -15 -14 -37 -14
-49 0 -12 -3 -20 -6 -16 -9 9 -55 -83 -48 -95 4 -6 2 -8 -4 -4 -6 4 -37 -42
-77 -114 -58 -105 -65 -123 -53 -138 11 -15 11 -15 -3 -5 -13 10 -18 7 -33
-17 -9 -17 -14 -35 -10 -42 5 -7 3 -8 -6 -3 -10 6 -12 4 -7 -8 4 -10 2 -16 -6
-14 -7 1 -11 -4 -9 -10 3 -19 -22 -16 -63 8 -30 18 -38 19 -53 8 -15 -12 -16
-12 -4 2 10 14 10 18 -4 23 -9 3 -21 3 -27 -1 -7 -3 -9 -3 -5 2 10 10 -101 77
-114 69 -6 -4 -5 -10 3 -15 8 -5 9 -9 3 -9 -18 0 -24 12 -13 26 9 11 7 15 -7
21 -11 3 -36 19 -56 36 -21 16 -39 26 -39 23 -1 -3 -2 -12 -3 -18 -1 -7 -9
-12 -18 -10 -9 1 -19 -2 -23 -8 -10 -16 -23 -12 -21 6 1 9 11 21 21 26 14 8
16 8 9 -3 -6 -11 -5 -11 10 0 16 13 14 17 -26 52 -29 25 -47 34 -55 28 -12
-11 -28 5 -19 19 3 5 -35 48 -84 96 -49 48 -88 90 -88 94 1 4 -7 8 -18 9 -10
2 -13 0 -6 -3 6 -3 12 -13 12 -22 0 -12 -5 -10 -22 8 -13 14 -22 27 -21 31 1
3 -4 6 -12 6 -7 0 -11 -6 -8 -13 2 -6 0 -15 -5 -18 -6 -4 -8 5 -6 21 3 16 6
36 7 45 1 9 5 14 10 11 5 -3 6 -11 3 -19 -3 -8 0 -13 7 -11 7 1 11 -6 11 -15
-1 -10 2 -18 7 -18 21 0 14 20 -28 75 -25 33 -65 94 -90 137 -25 43 -49 78
-54 78 -6 0 -7 4 -4 10 7 11 -19 53 -27 44 -3 -3 -6 1 -5 8 1 34 -4 49 -15 42
-6 -4 -8 -3 -5 3 4 6 -7 43 -23 83 -17 40 -30 76 -30 81 0 4 -5 20 -12 36 -6
15 -13 37 -14 48 -17 113 -28 164 -33 161 -4 -3 -7 14 -7 37 0 23 -1 101 -3
172 -3 124 4 202 30 325 6 30 12 64 14 75 5 25 64 180 97 255 28 63 131 234
161 267 17 20 18 25 6 40 -12 16 -12 17 2 6 13 -10 21 -5 52 32 20 24 34 50
31 58 -2 7 3 20 13 27 15 12 16 12 6 0 -7 -8 -13 -18 -13 -23 0 -5 51 39 113
99 101 97 219 194 236 194 3 0 11 -4 16 -8z" fill="#0c838d" class="color000 svgShape"></path><path d="M3865 3842 c-31 -22 -112 -168 -101 -180 3 -2 -2 -11 -10 -19 -8 -9
-13 -22 -10 -30 3 -8 1 -11 -4 -8 -6 3 -10 0 -10 -7 -1 -7 -9 -31 -19 -52 -11
-22 -17 -46 -14 -53 3 -7 -2 -20 -11 -28 -16 -17 -22 -40 -8 -31 4 2 6 -11 4
-30 -4 -32 -21 -48 -23 -21 0 6 -10 -22 -21 -63 -25 -92 -30 -295 -9 -417 l13
-82 20 22 c19 22 19 22 3 -12 -16 -32 -14 -88 3 -116 4 -5 7 -22 8 -37 1 -15
5 -35 9 -45 4 -10 8 -27 9 -38 5 -58 31 -153 39 -148 6 3 7 1 3 -5 -3 -6 4
-61 16 -121 19 -91 26 -111 40 -111 19 0 25 -25 8 -35 -5 -3 -10 2 -10 11 0
10 -2 15 -5 13 -2 -3 9 -72 25 -155 75 -382 68 -538 -35 -836 -15 -42 -25 -87
-23 -100 4 -33 55 -36 92 -7 41 32 97 124 89 145 -4 11 -3 15 5 10 10 -6 47
50 51 76 1 5 12 32 25 60 79 175 99 340 65 553 -14 89 -19 106 -28 101 -4 -3
-8 0 -8 7 0 7 -4 21 -7 32 -5 14 -3 13 9 -5 l16 -25 -7 25 c-4 14 -12 50 -19
80 -55 257 -80 359 -85 344 -4 -10 -7 5 -7 32 0 27 -3 58 -6 69 -3 11 -6 33
-6 49 -1 23 -4 26 -15 17 -11 -9 -15 -5 -20 20 -9 48 -6 57 9 24 8 -16 14 -25
15 -20 0 17 -30 189 -37 205 -3 8 -7 26 -9 40 -2 30 -10 92 -25 216 -14 112
-6 327 14 409 8 33 15 67 15 75 1 8 6 41 13 73 15 80 1 149 -26 129z" fill="#0c838d" class="color000 svgShape"></path></g></svg></g></svg>